<?xml version="1.0" standalone="no"?>
<!DOCTYPE svg PUBLIC "-//W3C//DTD SVG 20010904//EN">
<svg version="1.0" xmlns="http://www.w3.org/2000/svg"
 width="2314.000000pt" height="2729.000000pt" viewBox="0 0 2314.000000 2729.000000"
 preserveAspectRatio="xMidYMid meet">
<metadata>
Created by potrace 1.16, written by Peter Selinger 2001-2019
</metadata>
<g transform="translate(0.000000,2729.000000) scale(0.100000,-0.100000)"
fill="#000000" stroke="none">
<path d="M11375 27264 c-38 -8 -151 -31 -250 -50 -672 -131 -1425 -343 -2095
-591 -196 -72 -586 -227 -670 -266 -30 -14 -93 -42 -140 -62 -240 -103 -716
-336 -960 -470 -58 -32 -123 -68 -145 -80 -136 -74 -325 -181 -395 -225 -8 -5
-35 -21 -60 -36 -531 -319 -1135 -748 -1630 -1158 -375 -312 -647 -560 -996
-910 -198 -199 -290 -296 -519 -546 -123 -135 -428 -502 -581 -699 -389 -502
-743 -1027 -1056 -1566 -182 -313 -253 -445 -447 -840 -163 -330 -313 -664
-420 -935 -34 -85 -66 -164 -71 -175 -11 -22 -57 -145 -70 -185 -5 -14 -18
-50 -30 -80 -40 -103 -219 -644 -266 -805 -158 -541 -280 -1066 -374 -1620
-108 -634 -160 -1165 -191 -1973 -13 -322 -4 -710 26 -1181 65 -1014 239
-2001 530 -3007 65 -226 222 -709 251 -771 7 -17 14 -34 14 -39 0 -11 121
-331 175 -464 26 -63 62 -151 80 -195 99 -241 281 -636 403 -875 35 -69 84
-165 110 -215 40 -79 205 -376 304 -550 269 -470 782 -1216 1127 -1640 162
-199 324 -392 455 -539 353 -398 852 -893 1236 -1226 41 -36 80 -70 86 -76 13
-11 91 -76 279 -231 592 -488 1315 -977 2050 -1385 194 -108 644 -339 815
-418 52 -24 133 -61 180 -83 230 -106 707 -300 965 -392 88 -31 169 -61 180
-65 35 -15 254 -87 435 -143 456 -143 930 -264 1410 -361 238 -47 729 -131
734 -125 2 2 24 150 50 329 25 179 55 384 66 455 10 72 26 180 35 240 37 257
215 1489 230 1584 8 57 14 106 11 108 -2 2 -59 13 -127 24 -1162 186 -2215
524 -3249 1040 -1075 538 -2024 1222 -2875 2074 -407 406 -702 746 -1038 1195
-898 1198 -1547 2591 -1900 4075 -188 790 -281 1548 -294 2385 -6 433 4 723
37 1110 204 2338 1152 4561 2700 6330 574 656 1228 1247 1920 1733 217 153
258 181 390 266 484 311 939 558 1470 799 714 323 1553 592 2345 751 138 28
306 59 374 70 68 11 126 22 128 24 2 2 -12 71 -31 153 -19 82 -71 307 -116
499 -45 193 -106 456 -135 585 -187 807 -258 1117 -280 1210 -14 58 -31 132
-38 165 -13 59 -14 60 -48 62 -19 1 -65 -5 -104 -13z m-117 -970 c5 -3 52
-186 52 -201 0 -10 -57 -33 -82 -33 -4 0 -16 17 -27 39 -44 85 -114 115 -200
86 -98 -32 -137 -113 -135 -280 1 -112 22 -227 66 -360 37 -110 60 -157 105
-213 57 -70 120 -90 184 -57 53 28 63 106 30 233 -23 89 -42 118 -80 127 -18
4 -31 14 -35 28 -3 11 -4 23 -2 25 4 4 324 82 337 82 17 0 9 -50 -11 -70 -28
-28 -26 -58 20 -246 22 -91 40 -170 40 -175 0 -5 -20 -19 -44 -31 l-44 -21
-27 21 -26 21 -44 -34 c-66 -50 -142 -75 -229 -75 -105 0 -167 23 -237 87
-148 137 -246 490 -198 715 23 107 91 207 180 263 53 34 163 66 254 74 70 6
143 4 153 -5z m-815 -196 c4 -15 -1 -30 -16 -46 -15 -16 -21 -35 -21 -60 1
-20 61 -241 133 -491 73 -249 129 -457 124 -461 -13 -13 -151 -48 -160 -41
-10 7 -319 341 -482 521 -159 176 -144 164 -126 105 8 -28 45 -149 81 -270
104 -350 107 -359 131 -382 12 -13 31 -23 43 -23 20 0 44 -39 31 -51 -12 -12
-232 -70 -241 -64 -16 10 -12 35 10 62 11 14 20 39 20 55 0 26 -109 415 -204
728 -33 111 -56 150 -85 150 -23 0 -37 12 -45 36 -6 19 4 23 129 59 75 21 137
36 139 34 1 -2 79 -87 172 -189 134 -147 375 -417 391 -439 15 -21 3 30 -43
179 -29 96 -70 234 -91 305 -39 136 -68 185 -112 185 -17 0 -40 35 -29 45 5 4
221 73 234 74 7 1 14 -9 17 -21z m-922 -279 c9 -17 7 -25 -12 -45 -15 -16 -23
-36 -22 -57 1 -29 250 -774 274 -819 16 -30 40 -48 64 -48 27 0 53 -36 38 -51
-5 -5 -82 -34 -171 -63 -157 -53 -162 -54 -173 -35 -8 16 -5 26 15 50 14 17
26 39 26 48 0 18 -44 151 -193 582 -95 275 -93 271 -144 288 -26 9 -44 23 -47
35 -3 11 -4 21 -3 21 4 3 322 113 329 114 4 0 12 -8 19 -20z m-598 -293 c87
-37 169 -171 175 -287 4 -56 0 -76 -23 -128 -15 -33 -34 -66 -41 -72 -25 -20
-15 -36 27 -43 55 -9 108 -44 214 -143 94 -89 147 -123 189 -123 21 0 46 -23
46 -43 0 -6 -226 -107 -240 -107 -18 0 -89 59 -210 176 -58 55 -116 108 -130
117 -49 33 -146 13 -136 -28 10 -38 133 -290 150 -308 10 -9 30 -17 46 -17 26
0 50 -22 50 -45 0 -3 -30 -20 -67 -36 -38 -17 -106 -49 -152 -70 -46 -22 -90
-39 -97 -39 -22 0 -28 40 -9 60 28 30 15 78 -68 260 -41 91 -118 260 -171 375
-97 214 -125 255 -171 255 -21 0 -54 35 -43 46 10 10 389 178 438 195 66 22
178 24 223 5z m-729 -360 c31 -57 56 -108 56 -114 0 -7 -17 -20 -37 -31 l-38
-19 -49 43 c-56 50 -85 58 -137 40 -30 -11 -142 -68 -157 -80 -2 -2 164 -331
174 -343 1 -2 26 9 55 24 69 38 83 61 74 122 -6 48 -6 49 25 62 17 7 32 11 34
9 11 -15 147 -282 144 -284 -2 -2 -17 -11 -33 -19 -28 -15 -30 -14 -67 19 -21
19 -47 35 -58 35 -27 0 -120 -47 -120 -61 0 -5 41 -91 91 -190 63 -123 96
-179 108 -179 28 1 154 74 174 101 21 29 25 78 14 159 l-8 56 37 17 c20 10 40
14 44 10 10 -11 121 -255 118 -258 -3 -2 -508 -261 -572 -293 -24 -12 -30 -12
-37 -1 -10 15 -8 25 12 77 13 32 11 38 -115 285 -203 396 -276 531 -293 545
-9 6 -31 12 -48 12 -24 0 -35 6 -43 24 -10 23 -5 26 196 129 114 58 250 129
302 156 52 28 96 51 97 51 1 0 27 -47 57 -104z m-703 -381 c32 -55 58 -103 59
-107 0 -3 -16 -16 -36 -28 l-35 -22 -40 31 c-52 42 -100 62 -130 53 -28 -8
-179 -91 -179 -98 0 -6 180 -316 190 -327 10 -11 98 41 117 70 13 20 14 32 6
69 -10 42 -9 45 17 64 16 11 30 20 33 20 4 0 70 -109 140 -232 l27 -46 -32
-20 -32 -21 -38 35 c-21 19 -45 34 -55 34 -26 0 -123 -53 -123 -67 0 -11 134
-249 196 -350 l14 -22 81 47 c45 26 88 57 96 69 18 27 19 114 3 174 -6 23 -10
42 -8 44 15 13 71 35 78 30 9 -5 130 -233 130 -245 0 -3 -12 -13 -27 -21 -16
-9 -146 -85 -291 -169 -249 -145 -264 -152 -277 -134 -18 24 -18 29 0 44 21
17 19 63 -4 108 -60 118 -406 701 -427 720 -16 13 -38 22 -59 22 -25 0 -35 5
-40 21 -4 11 -5 22 -3 23 5 5 208 124 398 234 96 56 179 100 184 99 5 -2 35
-48 67 -102z m-791 -404 c-27 -52 -19 -66 275 -476 157 -218 285 -400 285
-403 -1 -7 -51 -45 -110 -84 -29 -19 -13 -26 -300 126 -102 54 -221 118 -265
141 -44 23 -124 66 -178 95 l-98 52 58 -79 c32 -44 120 -166 196 -271 168
-231 178 -242 226 -242 34 0 61 -14 61 -32 0 -4 -45 -39 -101 -79 -91 -65
-102 -70 -116 -56 -14 13 -14 20 -3 46 23 57 53 10 -439 691 -62 85 -86 104
-129 103 -28 -1 -41 3 -50 17 -10 16 -8 22 13 37 14 10 41 29 59 43 19 14 58
43 89 64 l55 38 299 -160 c164 -88 332 -180 373 -205 41 -25 76 -42 78 -37 2
5 -50 80 -115 167 -66 87 -147 196 -180 243 -84 117 -104 134 -152 132 -32 -2
-41 1 -46 18 -8 26 -18 16 100 100 94 67 99 69 112 50 10 -14 11 -25 3 -39z
m-782 -567 c-6 -17 -8 -41 -5 -55 6 -21 469 -612 535 -682 23 -24 34 -28 70
-26 40 3 61 -9 62 -33 0 -6 -105 -91 -258 -211 -9 -7 -18 -6 -29 5 -13 13 -14
22 -5 48 8 20 8 39 2 56 -6 14 -63 91 -128 172 -64 81 -129 163 -144 182 -120
158 -273 337 -296 347 -15 6 -39 9 -53 6 -31 -6 -59 21 -41 39 7 7 69 58 140
114 119 96 128 101 144 85 15 -14 16 -21 6 -47z m-311 -452 l26 -33 -30 -31
-30 -30 -62 32 c-74 39 -122 37 -176 -5 -139 -105 -70 -325 182 -581 113 -114
189 -168 265 -188 65 -16 103 -7 141 34 52 58 29 125 -80 241 -66 70 -68 71
-110 66 -32 -3 -46 0 -58 13 -14 16 -6 26 117 134 127 111 133 115 150 98 15
-15 16 -22 6 -49 -10 -28 -9 -36 14 -70 14 -21 67 -85 118 -143 51 -58 99
-112 107 -121 13 -15 11 -22 -14 -57 -25 -35 -32 -40 -66 -38 -36 1 -39 -2
-52 -37 -17 -50 -57 -100 -116 -147 -118 -93 -255 -105 -389 -34 -154 81 -330
274 -402 443 -30 69 -32 85 -33 181 0 95 3 111 28 161 49 101 156 202 282 267
l60 31 48 -52 c27 -29 60 -67 74 -85z m-798 -446 c8 -9 10 -28 6 -48 -6 -29
-1 -41 27 -76 18 -23 183 -179 366 -347 182 -169 332 -309 332 -311 0 -14
-106 -124 -119 -124 -8 0 -74 18 -145 39 -72 21 -219 64 -326 96 -107 31 -237
70 -288 86 -50 17 -97 29 -103 27 -6 -2 15 -26 47 -53 46 -39 364 -328 432
-393 28 -26 55 -34 97 -28 31 5 45 3 55 -9 11 -13 -1 -29 -75 -110 -82 -89
-89 -95 -105 -80 -14 12 -17 26 -13 55 7 50 2 56 -194 237 -87 80 -216 201
-287 267 -166 156 -170 158 -227 151 -34 -4 -50 -1 -59 10 -10 12 2 31 80 115
51 55 96 100 102 100 15 0 635 -186 728 -219 47 -16 87 -28 89 -26 4 4 -13 20
-120 115 -41 36 -106 94 -144 130 -235 218 -240 221 -292 203 -22 -8 -32 -6
-45 7 -16 15 -12 22 68 108 47 51 89 92 94 92 4 0 13 -6 19 -14z m-577 -794
c93 -79 95 -84 49 -126 -19 -17 -23 -17 -67 -2 -26 9 -66 16 -87 16 -34 0 -47
-6 -81 -43 -23 -23 -55 -61 -73 -83 l-31 -40 144 -119 c79 -66 148 -121 152
-123 5 -1 25 19 45 44 42 54 47 95 17 134 -25 32 -25 42 4 69 l23 22 122 -101
c66 -56 121 -105 121 -109 0 -4 -11 -17 -23 -29 -22 -21 -26 -22 -60 -7 -61
25 -82 20 -127 -32 -22 -27 -42 -51 -43 -54 -1 -3 72 -68 162 -144 l165 -137
52 58 c74 82 88 113 74 165 -6 22 -24 62 -41 88 -16 27 -29 51 -29 55 0 11 43
66 52 66 12 0 208 -182 208 -193 0 -8 -358 -443 -416 -506 -21 -23 -47 5 -41
43 2 17 -1 42 -6 55 -15 32 -659 569 -693 577 -15 4 -40 3 -54 -3 -34 -13 -71
9 -55 32 52 74 431 512 439 507 6 -3 50 -39 98 -80z m-717 -1151 c85 -40 123
-107 132 -239 l6 -85 150 6 c82 4 152 9 155 11 11 12 -23 68 -64 106 -42 39
-76 50 -89 30 -8 -12 -25 -13 -44 -1 -11 7 -3 24 35 80 27 39 55 71 63 71 41
0 181 -202 181 -261 0 -22 41 -25 103 -8 41 11 63 45 52 80 -5 16 -1 19 28 19
41 0 47 -13 47 -106 0 -47 -5 -69 -23 -95 -29 -43 -78 -76 -126 -84 l-38 -6
-5 -73 c-4 -58 -12 -85 -42 -144 -81 -152 -191 -205 -311 -148 -103 47 -155
141 -155 278 0 37 -3 68 -7 68 -5 0 -39 5 -76 10 -73 11 -126 33 -176 76 -110
92 -95 281 31 389 57 48 108 56 173 26z m-719 -797 c57 -30 104 -59 104 -64 0
-5 -8 -22 -17 -40 l-18 -31 -70 6 c-94 8 -117 -7 -173 -114 -24 -45 -41 -85
-37 -90 3 -5 58 -38 123 -72 64 -34 137 -73 161 -87 24 -13 47 -20 51 -15 5 4
20 31 34 60 29 58 27 73 -18 121 -29 31 -30 34 -15 60 9 17 23 26 35 25 15 -2
212 -104 261 -136 9 -6 8 -15 -5 -37 -16 -30 -19 -30 -70 -24 -62 8 -81 -4
-118 -78 l-24 -47 153 -82 c83 -45 169 -91 189 -102 21 -11 39 -19 41 -16 2 2
23 38 45 80 60 110 55 153 -30 245 l-41 44 19 35 c10 19 22 35 27 35 5 0 62
-32 128 -71 l119 -71 -47 -87 c-25 -47 -58 -108 -73 -136 -15 -27 -47 -86 -70
-130 -24 -44 -55 -102 -70 -130 -15 -27 -35 -65 -44 -82 -15 -29 -19 -31 -40
-22 -19 9 -24 19 -23 46 1 40 -19 61 -101 105 -26 14 -164 88 -307 165 -413
223 -406 220 -453 188 -16 -12 -26 -13 -42 -5 -11 6 -20 13 -20 16 0 6 283
534 307 572 7 12 16 22 19 22 3 0 53 -25 110 -56z m-378 -709 c53 -25 98 -48
101 -50 2 -3 -4 -23 -14 -45 -15 -34 -22 -39 -39 -34 -42 14 -131 8 -159 -11
-59 -38 -77 -125 -41 -200 51 -108 266 -248 509 -331 106 -36 229 -40 272 -8
48 36 73 82 73 136 0 46 -4 53 -56 108 l-56 59 17 35 c10 20 20 36 24 36 3 0
52 -21 108 -47 117 -55 114 -48 82 -163 -47 -171 -132 -295 -237 -347 -135
-66 -374 -17 -599 123 -276 172 -341 403 -187 658 32 53 91 126 101 126 2 0
47 -20 101 -45z m-434 -691 c9 -3 16 -17 16 -30 0 -48 48 -81 210 -148 85 -35
225 -93 310 -128 85 -36 208 -87 272 -113 165 -67 156 -56 118 -148 -17 -42
-35 -77 -38 -77 -4 0 -135 -9 -292 -21 -157 -11 -352 -22 -435 -26 -82 -3
-156 -9 -163 -12 -7 -4 78 -44 200 -93 117 -48 264 -107 326 -133 117 -48 155
-52 183 -19 13 16 28 18 48 5 10 -7 5 -27 -27 -102 -22 -52 -43 -104 -46 -116
-14 -46 -66 -17 -66 36 0 28 -40 53 -176 109 -65 27 -229 96 -364 152 -307
128 -312 129 -351 101 -31 -23 -69 -21 -69 3 0 8 23 67 50 132 l50 120 291 17
c159 10 353 21 430 24 77 3 136 9 132 13 -4 4 -69 31 -143 60 -74 29 -204 82
-288 117 -156 64 -203 74 -238 48 -22 -17 -34 -18 -53 -6 -11 7 -5 31 35 125
26 64 51 116 55 116 4 0 14 -3 23 -6z m-283 -980 c90 -29 109 -38 105 -52 -3
-9 -8 -29 -12 -44 -6 -26 -10 -28 -55 -28 -57 0 -125 -24 -134 -48 -23 -57
-55 -159 -55 -177 0 -18 20 -27 169 -73 93 -29 175 -52 184 -52 9 0 20 21 31
60 20 69 15 85 -39 126 -29 22 -34 31 -29 53 12 49 -5 52 291 -40 29 -9 32
-14 27 -37 -10 -39 -9 -39 -65 -45 -63 -8 -73 -16 -93 -74 -27 -77 -27 -76 92
-112 226 -68 277 -84 289 -88 13 -5 63 148 63 193 0 36 -39 86 -98 125 -26 18
-48 33 -50 35 -2 1 2 21 8 44 13 49 3 50 175 -11 92 -33 115 -45 111 -58 -27
-93 -190 -627 -191 -629 -2 -2 -14 0 -29 4 -20 5 -26 12 -26 34 0 34 -26 58
-82 75 -386 120 -777 235 -799 235 -16 0 -38 -9 -49 -20 -21 -21 -55 -27 -64
-11 -3 4 33 134 80 287 46 153 90 298 96 322 6 24 16 42 24 42 8 0 64 -16 125
-36z m-324 -742 c6 -4 15 -20 18 -35 4 -16 18 -35 30 -43 31 -20 805 -214 855
-214 29 0 47 6 63 23 29 30 72 26 63 -6 -3 -12 -22 -91 -43 -174 -37 -151 -38
-153 -65 -153 -22 0 -28 5 -28 21 0 32 -19 59 -48 70 -52 20 -817 209 -845
209 -16 0 -38 -10 -53 -25 -19 -19 -31 -24 -50 -19 -17 4 -23 11 -20 21 3 8
20 69 36 136 48 189 50 197 63 197 7 0 17 -4 24 -8z m-23 -494 l108 -21 -6
-41 c-8 -48 -18 -56 -69 -56 -93 0 -151 -59 -144 -147 4 -64 38 -111 113 -159
150 -96 529 -166 682 -125 86 24 143 105 128 184 -9 49 -36 79 -100 113 -53
27 -54 29 -49 64 3 19 9 39 13 43 4 5 61 -2 125 -14 l117 -23 -5 -126 c-14
-328 -137 -463 -421 -462 -170 0 -351 44 -481 117 -81 45 -167 139 -197 214
-27 70 -29 188 -5 280 19 68 66 181 76 181 3 0 55 -10 115 -22z m-140 -788
l97 -13 -3 -46 c-3 -41 -6 -46 -28 -49 -104 -13 -154 -49 -169 -124 -10 -43
-9 -56 6 -87 27 -54 74 -81 142 -81 75 0 103 18 236 156 136 140 171 159 295
159 106 -1 176 -24 240 -82 87 -78 113 -175 87 -320 -14 -74 -61 -240 -71
-250 -5 -6 -231 29 -239 37 -4 4 -5 25 -1 47 6 40 7 41 54 46 75 9 128 41 151
90 22 50 24 96 5 142 -18 42 -49 63 -117 77 -98 20 -126 5 -264 -136 -151
-155 -182 -171 -315 -171 -112 0 -180 25 -232 83 -57 65 -73 115 -72 227 0
137 53 325 88 312 7 -3 57 -11 110 -17z m802 -1137 c-3 -42 -6 -100 -6 -130
l0 -54 -62 -28 c-35 -15 -126 -49 -203 -76 -199 -67 -215 -79 -215 -161 l0
-31 83 -6 c110 -9 279 -8 293 1 6 4 16 17 23 30 7 14 21 22 37 22 l26 0 -7
-172 c-4 -95 -9 -176 -12 -180 -2 -5 -15 -8 -28 -8 -16 0 -25 7 -29 25 -13 50
-42 55 -420 76 -193 10 -390 19 -438 19 -84 0 -87 -1 -111 -30 -17 -19 -35
-30 -52 -30 -24 0 -26 3 -21 28 2 15 8 101 11 192 9 219 20 302 49 366 49 106
123 148 258 148 78 -1 94 -4 153 -33 65 -32 94 -62 138 -141 l17 -32 53 49
c54 48 77 59 261 124 67 24 98 41 125 70 21 22 46 38 60 38 24 1 24 1 17 -76z
m-886 -912 l0 -48 -46 -13 c-25 -7 -61 -28 -80 -45 l-34 -32 0 -107 0 -106
195 0 195 0 0 59 c0 71 -21 102 -80 120 -39 12 -41 14 -38 49 l3 37 150 -2
c83 -2 156 -3 163 -3 9 0 12 -12 10 -37 -3 -33 -7 -38 -38 -45 -57 -14 -80
-49 -80 -118 l0 -59 208 -3 c114 -2 213 -1 220 1 11 3 13 26 10 102 -3 95 -4
100 -34 129 -17 17 -60 42 -95 54 l-64 24 -3 47 -3 48 92 -6 c51 -4 116 -7
146 -7 l53 0 0 -340 0 -340 -29 0 c-21 0 -32 6 -36 20 -15 47 -23 48 -485 51
-239 2 -445 0 -458 -5 -12 -4 -29 -21 -38 -37 -11 -22 -21 -29 -37 -27 -21 3
-22 9 -25 103 -2 55 0 209 3 343 l7 242 124 0 124 0 0 -49z m40 -825 c0 -44 0
-44 -52 -62 -28 -11 -67 -33 -85 -50 -29 -27 -33 -38 -33 -80 0 -27 4 -55 8
-61 10 -16 858 60 900 79 17 8 31 26 37 46 8 27 14 32 35 30 l25 -3 17 -180
c9 -99 14 -183 12 -187 -12 -19 -44 -5 -62 26 -12 20 -30 35 -46 38 -21 4
-604 -43 -835 -68 l-63 -7 4 -55 c6 -74 39 -104 132 -122 63 -13 66 -15 72
-47 11 -56 7 -58 -137 -70 -73 -7 -135 -11 -136 -9 -6 6 -75 797 -70 803 7 7
136 20 215 22 l62 1 0 -44z m821 -882 c102 -55 152 -166 153 -339 1 -90 -2
-106 -28 -158 -35 -72 -95 -119 -186 -147 -36 -11 -164 -33 -285 -50 -400 -56
-440 -62 -458 -72 -10 -5 -25 -25 -33 -44 -17 -40 -51 -47 -59 -11 -6 31 -45
305 -45 323 0 21 47 17 63 -6 27 -38 57 -41 219 -19 278 37 543 78 578 88 121
36 169 131 121 238 -43 93 -117 98 -571 34 -321 -45 -370 -58 -380 -102 -4
-17 -14 -25 -32 -27 -30 -4 -28 -12 -52 172 -8 60 -13 113 -10 118 10 16 41 8
62 -17 12 -13 32 -27 44 -30 13 -3 165 15 338 39 383 55 474 57 561 10z m-300
-941 c89 -49 145 -143 172 -285 7 -42 15 -58 26 -58 41 1 325 80 342 96 10 9
19 27 19 39 0 11 5 26 12 33 13 13 48 16 48 5 0 -5 18 -84 40 -177 22 -93 39
-170 38 -171 -2 -2 -12 -5 -24 -9 -14 -4 -27 1 -43 20 -21 24 -28 26 -80 21
-48 -5 -560 -122 -761 -174 -69 -18 -110 -49 -110 -82 0 -21 -36 -39 -50 -24
-4 4 -31 109 -60 233 -46 198 -52 235 -48 307 4 69 9 89 34 129 54 88 168 136
310 131 68 -3 89 -8 135 -34z m755 -777 c41 -122 51 -162 42 -168 -21 -13 -37
-9 -58 12 -11 11 -30 20 -42 20 -27 0 -719 -229 -733 -243 -6 -6 99 -7 280 -3
160 3 339 7 399 7 l110 2 18 -53 c10 -29 15 -56 13 -60 -3 -4 -121 -90 -262
-190 -329 -233 -383 -273 -380 -277 2 -1 55 16 118 38 63 22 224 78 357 124
257 88 292 107 292 157 0 21 5 28 20 28 11 0 23 1 26 3 5 2 84 -217 84 -235 0
-19 -43 -18 -64 1 -40 38 -32 40 -586 -149 -322 -110 -340 -119 -340 -172 0
-18 -6 -29 -15 -29 -8 -1 -20 -2 -26 -3 -6 -1 -36 69 -65 154 l-55 155 33 28
c18 15 74 55 123 89 50 34 115 79 145 102 31 23 87 62 125 89 39 26 84 59 100
73 l30 25 -185 -5 c-102 -3 -257 -7 -344 -7 l-159 -2 -49 144 c-26 79 -46 149
-44 156 8 19 34 16 63 -7 14 -11 35 -20 46 -20 11 0 102 28 201 61 100 34 272
92 382 129 252 85 280 99 289 142 8 35 22 49 44 45 8 -1 36 -68 67 -161z m286
-1088 c177 -81 281 -316 220 -495 -49 -139 -201 -252 -458 -340 -101 -34 -118
-37 -224 -37 -139 0 -202 20 -279 90 -132 118 -180 330 -107 472 68 134 256
253 500 318 125 33 265 30 348 -8z m416 -730 c149 -187 192 -352 128 -492 -50
-112 -219 -245 -409 -321 -117 -47 -179 -58 -293 -53 -81 3 -109 9 -155 31
-111 53 -206 189 -245 350 -9 37 -15 69 -13 71 2 2 50 26 105 54 l101 51 18
-40 18 -40 -35 -37 c-41 -42 -68 -91 -68 -122 0 -37 38 -97 77 -121 87 -54
268 -19 480 92 166 87 266 169 309 250 21 41 15 120 -13 157 -42 58 -104 71
-214 46 -23 -5 -28 -1 -39 28 -8 18 -14 37 -14 42 -1 7 190 116 206 116 3 0
29 -28 56 -62z m681 -1218 c69 -107 78 -127 65 -136 -11 -9 -23 -9 -43 -1 -15
5 -38 7 -52 4 -34 -9 -626 -388 -641 -411 -4 -6 -8 -26 -8 -43 0 -18 -2 -33
-4 -33 -2 0 -11 -3 -19 -6 -11 -4 -31 19 -69 78 -159 245 -250 389 -246 393 2
2 42 29 88 59 l85 56 22 -28 c13 -15 23 -30 23 -33 0 -3 -13 -23 -29 -43 -49
-61 -49 -86 -1 -166 23 -39 47 -70 53 -70 17 0 286 174 287 186 0 6 -14 30
-30 52 -26 36 -35 42 -66 42 -19 0 -44 -4 -54 -10 -15 -8 -23 -5 -39 17 l-21
26 62 41 c35 23 93 60 129 83 l66 41 15 -26 c15 -26 15 -29 -13 -62 -36 -42
-36 -69 -3 -120 l27 -40 46 27 c209 121 260 166 249 220 -4 19 22 46 34 35 4
-4 43 -63 87 -132z m208 -356 c63 -30 128 -100 167 -180 41 -81 42 -174 5
-255 -36 -76 -143 -187 -250 -258 -227 -152 -414 -157 -549 -15 -111 118 -136
249 -71 377 79 156 326 330 511 361 48 8 136 -6 187 -30z m800 -1019 c65 -75
119 -139 121 -143 1 -4 -7 -13 -17 -19 -16 -10 -26 -9 -50 3 -36 18 -51 12
-126 -49 -68 -56 -332 -286 -488 -426 l-128 -114 42 -44 c36 -36 49 -43 81
-43 21 0 61 11 88 25 63 32 71 32 100 -7 l23 -32 -59 -54 c-32 -29 -79 -71
-104 -92 l-46 -38 -76 86 c-41 48 -161 186 -267 306 -151 173 -189 222 -179
232 110 100 197 171 204 166 5 -4 20 -19 33 -34 l24 -28 -26 -37 c-38 -56 -59
-111 -52 -142 3 -14 20 -43 38 -65 l33 -38 327 286 c180 158 334 298 343 311
12 19 15 36 10 67 -6 39 2 57 26 58 4 0 60 -61 125 -135z m404 -432 c19 -21
45 -50 57 -64 l22 -26 -41 -114 c-22 -63 -78 -220 -124 -349 -46 -129 -97
-273 -114 -318 l-31 -84 249 242 c137 133 254 253 261 266 8 13 10 36 6 55 -4
23 -1 37 10 50 15 17 21 12 104 -74 79 -82 87 -94 74 -108 -11 -12 -26 -15
-57 -12 -40 5 -46 2 -117 -61 -41 -36 -189 -177 -329 -314 l-254 -249 7 -45
c5 -35 3 -48 -10 -59 -14 -12 -27 -2 -110 84 -52 53 -94 101 -94 107 0 5 29
90 64 187 35 98 81 225 101 283 21 58 57 154 82 213 24 60 43 113 41 118 -2 5
-111 -98 -242 -230 l-239 -240 6 -44 c6 -43 -4 -67 -27 -67 -6 0 -49 41 -94
90 -70 76 -82 93 -72 105 10 12 25 14 60 9 l48 -6 173 165 c96 91 257 247 359
346 102 99 187 180 190 181 3 0 22 -17 41 -37z m642 -632 c45 -38 150 -126
232 -196 83 -70 160 -135 173 -145 20 -16 21 -22 11 -38 -10 -16 -20 -19 -44
-15 -40 6 -71 -10 -117 -62 -27 -31 -251 -297 -379 -450 -10 -11 -42 -49 -73
-86 -67 -79 -79 -107 -64 -149 8 -26 8 -35 -5 -47 -14 -14 -18 -13 -45 8 -54
44 -457 382 -476 399 -18 17 -16 21 64 114 87 102 92 104 134 57 18 -19 18
-22 1 -63 -9 -24 -17 -63 -18 -87 0 -42 4 -48 57 -98 70 -65 102 -87 116 -78
13 8 240 277 240 285 0 14 -99 80 -120 80 -12 0 -40 -10 -61 -22 l-40 -22 -25
25 -25 26 101 121 c84 100 105 120 120 112 36 -19 41 -35 25 -73 -25 -61 -20
-81 37 -132 50 -45 53 -46 68 -28 8 10 70 84 138 165 67 80 122 148 122 151 0
3 -35 33 -77 67 -74 60 -78 62 -125 58 -32 -4 -67 -17 -105 -40 l-57 -36 -33
26 c-19 13 -32 29 -31 33 5 15 183 209 191 209 5 0 45 -31 90 -69z m619 -522
c73 -55 135 -105 136 -110 8 -21 -19 -38 -54 -32 -28 5 -40 1 -61 -18 -20 -19
-194 -242 -430 -552 -37 -48 -42 -66 -14 -46 28 20 104 73 380 267 134 95 248
172 253 172 15 0 88 -63 88 -75 0 -7 -61 -174 -135 -371 -74 -197 -135 -363
-135 -368 0 -5 13 8 29 30 17 21 87 115 156 207 69 93 147 197 174 230 113
147 122 169 97 227 -3 9 0 24 8 35 13 19 18 16 110 -54 53 -40 99 -77 102 -82
12 -21 -19 -41 -53 -34 -27 5 -38 1 -67 -27 -43 -40 -500 -641 -521 -684 -11
-24 -12 -38 -3 -68 9 -30 9 -39 -3 -51 -12 -12 -25 -5 -90 43 -150 113 -189
145 -189 156 0 6 16 52 36 101 100 255 195 508 192 515 -3 10 -8 7 -313 -210
-126 -90 -235 -163 -241 -163 -13 0 -254 182 -254 192 0 18 28 31 66 31 49 0
57 8 209 209 55 73 157 208 227 299 153 200 164 220 148 268 -9 27 -9 38 0 49
7 8 14 15 16 15 2 0 64 -45 136 -101z m1124 -779 c82 -51 150 -94 152 -95 2
-2 -1 -12 -7 -23 -9 -16 -18 -19 -49 -15 -34 5 -41 1 -68 -29 -17 -19 -51 -68
-76 -109 -247 -402 -379 -619 -384 -632 -6 -16 43 -51 88 -62 38 -10 62 0 125
52 51 42 57 44 84 33 52 -22 51 -29 -18 -140 -35 -58 -68 -111 -72 -118 -6
-11 -46 10 -167 84 -87 53 -229 140 -314 192 -85 52 -169 105 -187 117 l-32
21 65 110 c36 60 70 113 74 118 11 11 80 -31 80 -49 0 -7 -7 -32 -15 -55 -22
-63 -19 -104 11 -140 24 -28 82 -66 89 -58 4 5 129 208 220 358 45 74 119 195
164 269 44 73 81 144 81 158 0 13 -7 35 -16 48 -17 26 -10 70 10 62 7 -3 80
-46 162 -97z m400 -232 l114 -61 0 -49 c0 -27 -9 -129 -21 -227 -19 -159 -19
-181 -6 -212 14 -33 71 -74 88 -63 11 7 145 255 157 293 10 29 9 39 -6 65 -14
24 -16 37 -9 54 10 22 10 22 91 -22 206 -111 236 -128 236 -135 0 -19 -28 -44
-44 -38 -9 4 -26 2 -39 -4 -31 -14 -46 -39 -224 -369 -22 -41 -71 -131 -108
-200 -126 -232 -130 -244 -100 -288 12 -16 13 -26 5 -42 -6 -11 -13 -20 -16
-20 -3 0 -73 38 -157 84 -84 46 -176 96 -204 112 -72 38 -149 108 -176 158
-32 61 -30 163 5 238 55 118 144 184 264 195 35 3 64 7 64 7 0 1 -9 29 -21 61
-17 49 -20 74 -15 135 19 232 19 287 2 321 -14 29 -14 69 1 69 3 0 57 -28 119
-62z m849 -435 c72 -30 141 -58 153 -64 16 -6 22 -15 18 -25 -3 -9 -6 -19 -6
-24 0 -5 -16 -10 -37 -12 -25 -2 -42 -11 -55 -28 -25 -34 -60 -211 -44 -226 6
-6 63 -33 126 -59 63 -26 120 -49 126 -52 17 -6 122 132 134 177 10 38 -2 90
-22 90 -11 0 -10 21 1 39 7 11 33 4 135 -39 70 -29 129 -57 132 -62 13 -20 -7
-43 -38 -45 -18 -2 -44 -11 -58 -21 -14 -10 -151 -165 -305 -344 -154 -179
-305 -354 -336 -389 l-56 -63 -70 28 c-39 15 -76 32 -84 36 -11 7 -3 72 40
357 29 191 64 422 77 512 l25 163 -22 44 c-25 52 -20 79 13 68 13 -4 82 -31
153 -61z m1173 -464 c60 -22 73 -37 54 -66 -4 -6 -20 -13 -36 -15 -49 -5 -55
-17 -166 -328 -27 -74 -78 -214 -113 -311 -84 -228 -84 -229 -53 -266 33 -39
26 -78 -13 -68 -39 9 -379 134 -429 157 -51 24 -137 100 -156 137 -68 132 32
381 180 447 65 29 182 23 284 -14 47 -17 88 -27 91 -24 15 16 109 298 109 327
0 19 -8 39 -20 50 -19 17 -27 55 -14 67 5 6 66 -15 282 -93z m433 -133 c151
-46 293 -89 317 -95 23 -7 42 -18 42 -26 0 -31 -13 -45 -41 -45 -50 0 -46 12
-215 -540 -100 -327 -105 -357 -75 -384 21 -19 29 -60 13 -70 -4 -2 -53 9
-107 26 -55 16 -127 38 -160 48 -157 47 -376 118 -382 123 -6 7 55 216 67 230
4 5 26 4 48 -2 l40 -11 4 -65 c6 -91 25 -113 124 -147 94 -32 121 -34 128 -10
3 9 25 85 50 169 25 83 46 158 46 166 0 16 -37 31 -101 42 -34 6 -39 3 -75
-39 -38 -45 -41 -46 -72 -35 -18 6 -32 13 -32 16 0 9 91 297 95 302 3 2 19 0
37 -5 27 -8 33 -15 31 -34 -1 -14 3 -42 8 -62 8 -33 15 -39 65 -57 67 -26 81
-26 88 -3 3 9 30 100 61 200 31 101 55 186 52 188 -11 11 -154 54 -181 54 -54
0 -104 -41 -161 -134 -9 -14 -16 -14 -50 -4 -22 6 -42 13 -44 14 -6 5 91 274
99 274 4 0 131 -38 281 -84z m1069 -255 c85 -17 170 -33 188 -37 28 -6 33 -10
30 -33 -2 -17 -10 -27 -23 -29 -33 -6 -55 -33 -70 -86 -16 -60 -165 -796 -165
-819 0 -9 13 -31 28 -49 30 -35 32 -68 4 -68 -26 0 -359 68 -422 86 -122 35
-231 118 -280 214 -88 172 -17 559 134 726 49 56 126 102 201 121 70 18 192
10 375 -26z"/>
<path d="M8618 25382 l-57 -27 91 -197 c63 -136 96 -198 107 -198 9 0 39 13
67 30 66 37 100 98 90 164 -8 54 -59 163 -94 199 -60 64 -116 72 -204 29z"/>
<path d="M3360 20858 c-64 -69 28 -179 162 -195 l51 -6 -7 44 c-11 72 -43 126
-90 154 -53 31 -89 32 -116 3z"/>
<path d="M3818 20472 l-167 -2 15 -42 c18 -51 36 -73 93 -110 54 -34 109 -37
155 -8 42 25 78 90 74 132 l-3 33 -167 -3z"/>
<path d="M1095 14410 c-17 -5 -45 -25 -64 -44 -27 -28 -34 -45 -41 -97 -4 -35
-5 -69 -3 -75 3 -7 50 -14 126 -18 67 -4 166 -9 220 -12 l97 -7 0 75 c0 89
-21 129 -85 162 -44 23 -196 33 -250 16z"/>
<path d="M1508 10894 c-72 -17 -125 -44 -158 -79 -22 -23 -25 -35 -24 -93 0
-37 6 -79 12 -93 l10 -26 214 50 c117 28 215 52 217 54 3 2 -1 27 -8 55 -30
130 -109 170 -263 132z"/>
<path d="M2613 9048 c-176 -20 -480 -154 -585 -259 -62 -62 -77 -111 -54 -174
10 -26 31 -54 49 -67 28 -20 44 -23 137 -23 95 0 115 4 215 38 312 107 475
227 475 346 0 51 -26 103 -60 121 -34 18 -110 26 -177 18z"/>
<path d="M3915 6786 c-153 -49 -414 -248 -469 -358 -31 -62 -33 -100 -6 -143
26 -42 67 -59 133 -53 147 13 482 259 532 392 17 44 17 52 4 89 -26 76 -99
103 -194 73z"/>
<path d="M7935 2630 c-58 -23 -144 -164 -153 -249 -7 -75 30 -127 125 -175
l32 -16 106 196 c58 108 105 197 103 199 -2 1 -25 14 -53 29 -51 27 -118 34
-160 16z"/>
<path d="M8875 2358 c-4 -13 -48 -288 -61 -383 l-7 -50 144 174 c79 96 143
177 143 180 -2 6 -193 90 -207 91 -4 0 -10 -6 -12 -12z"/>
<path d="M9454 1961 c-46 -28 -82 -80 -110 -158 -48 -138 -27 -211 77 -257 33
-15 66 -25 73 -23 11 5 156 387 156 413 0 12 -102 44 -141 44 -13 0 -38 -9
-55 -19z"/>
<path d="M11276 1928 c-54 -15 -126 -88 -164 -170 -78 -161 -111 -435 -68
-557 25 -73 87 -135 157 -155 101 -30 83 -72 182 425 49 242 87 443 84 445 -6
6 -108 24 -131 23 -11 -1 -39 -6 -60 -11z"/>
<path d="M8520 22652 c-57 -35 -94 -64 -93 -72 1 -8 41 -235 88 -505 102 -578
107 -626 75 -682 -18 -33 -20 -44 -11 -62 7 -12 15 -20 19 -18 14 8 307 181
311 184 2 1 -1 14 -7 27 -10 22 -16 24 -47 19 -48 -8 -78 10 -103 61 -16 32
-52 164 -52 191 0 4 285 174 306 182 11 4 37 -15 80 -58 108 -106 124 -149 74
-199 -19 -19 -19 -22 -4 -45 15 -23 19 -24 38 -12 11 8 100 60 196 117 96 57
179 107 184 111 6 5 5 17 -3 31 -10 19 -18 23 -54 20 -34 -3 -50 2 -83 26 -34
25 -450 408 -741 684 -34 32 -65 58 -70 58 -5 0 -51 -26 -103 -58z m180 -358
c41 -40 113 -107 159 -151 l84 -79 -132 -78 c-72 -43 -133 -77 -135 -75 -2 2
-22 105 -45 229 -24 124 -45 234 -48 244 -5 19 -5 19 19 0 13 -10 57 -51 98
-90z"/>
<path d="M7694 22104 c-66 -53 -120 -98 -122 -99 -2 -2 3 -13 10 -24 11 -18
19 -20 61 -15 59 8 60 7 202 -166 57 -69 151 -181 209 -250 58 -68 106 -128
106 -132 0 -4 -26 4 -57 18 -93 42 -193 84 -273 114 -41 16 -180 69 -309 119
-129 50 -238 91 -243 91 -7 0 -232 -176 -277 -216 -2 -2 4 -13 14 -24 14 -15
26 -18 60 -13 69 9 28 52 477 -503 200 -248 205 -257 171 -315 -17 -28 -17
-30 4 -51 l22 -21 58 49 c32 28 89 74 126 103 64 51 67 55 53 75 -8 11 -22 20
-33 18 -90 -13 -90 -13 -231 163 -110 137 -230 281 -310 372 l-54 63 93 -39
c52 -22 238 -94 414 -161 176 -67 349 -133 384 -147 49 -19 69 -22 85 -15 27
13 156 121 156 131 0 4 -55 75 -122 158 -68 83 -206 253 -308 378 -102 126
-195 244 -207 264 -27 42 -29 78 -7 109 15 21 15 25 -2 43 -9 10 -20 19 -24
19 -4 0 -61 -43 -126 -96z"/>
<path d="M11579 21885 c-3 -2 -46 -7 -96 -10 -88 -5 -305 -39 -446 -69 -164
-36 -474 -147 -527 -189 -8 -7 -33 -21 -54 -32 -55 -27 -177 -145 -200 -192
-10 -21 -25 -51 -34 -68 -9 -16 -18 -59 -21 -94 -6 -64 -7 -66 -46 -86 -47
-24 -215 -186 -215 -207 0 -8 -10 -23 -21 -34 -12 -10 -31 -39 -42 -64 -11
-25 -28 -56 -38 -69 -12 -15 -19 -40 -19 -68 0 -24 -9 -65 -20 -91 -21 -50
-52 -235 -43 -258 4 -11 31 -14 109 -14 l104 0 0 -180 0 -180 -79 0 c-44 0
-82 -4 -85 -9 -3 -5 8 -26 24 -46 17 -21 30 -48 30 -60 0 -46 105 -155 133
-138 4 2 7 46 7 97 l0 94 34 6 c18 4 41 4 50 0 9 -3 32 -3 52 0 29 6 38 14 51
44 8 20 16 42 17 47 5 30 81 75 128 75 14 0 39 5 57 11 l31 11 0 114 0 114
190 0 190 0 0 -185 c0 -132 3 -185 11 -185 7 0 42 -25 80 -55 37 -30 71 -55
75 -55 11 0 155 -73 160 -82 3 -4 12 -8 19 -8 11 0 15 24 17 113 l3 112 188 3
187 2 -2 -182 -3 -183 -87 -3 c-49 -1 -88 -5 -88 -8 0 -7 58 -92 82 -119 9
-11 20 -36 23 -55 3 -19 10 -39 15 -45 5 -7 13 -29 18 -51 l8 -39 154 -5 155
-5 3 -177 2 -178 -22 -1 c-13 -1 -55 0 -95 1 -40 1 -87 -1 -104 -5 l-32 -7 5
-103 c3 -58 2 -107 -3 -112 -6 -6 -12 -21 -14 -35 -3 -14 -12 -39 -20 -54 -33
-64 -32 -64 149 -64 129 0 168 -3 179 -14 11 -11 14 -50 16 -169 1 -84 -1
-161 -5 -171 -6 -15 -25 -17 -201 -15 -154 1 -197 -1 -204 -12 -10 -17 7 -29
44 -29 l27 0 0 -180 0 -180 -110 0 c-94 0 -111 -2 -118 -17 -17 -32 -26 -127
-23 -231 2 -85 -1 -110 -17 -145 -11 -23 -33 -94 -48 -157 -19 -79 -35 -125
-52 -145 l-25 -30 161 -3 c158 -2 162 -3 167 -25 3 -12 4 -94 3 -182 l-3 -160
-190 0 -190 0 -5 140 -5 140 -19 -58 c-10 -32 -16 -75 -14 -97 2 -22 0 -41 -4
-42 -4 -2 -8 -14 -10 -28 -2 -14 -7 -31 -12 -38 -4 -7 -5 -16 -2 -19 3 -3 1
-14 -5 -25 -6 -10 -10 -38 -11 -61 0 -23 -7 -57 -15 -75 -15 -31 -14 -138 1
-346 2 -21 -3 -50 -10 -65 -23 -46 -39 -168 -25 -197 10 -23 8 -32 -19 -72
-23 -34 -30 -57 -30 -92 0 -26 3 -50 7 -54 4 -3 8 -12 10 -19 1 -7 7 -34 13
-62 7 -27 18 -64 26 -82 8 -17 14 -40 14 -52 0 -11 8 -25 19 -30 14 -8 20 -26
24 -68 10 -99 34 -185 70 -256 19 -38 38 -80 41 -93 14 -54 26 -20 26 75 0 81
3 100 16 105 9 3 94 6 190 6 l174 0 -2 -182 -3 -183 -142 -3 c-79 -1 -143 -6
-143 -10 0 -4 16 -32 35 -62 32 -50 35 -60 35 -131 0 -49 5 -87 15 -105 8 -16
15 -36 15 -44 0 -8 9 -30 20 -48 11 -18 20 -38 20 -45 0 -19 99 -213 115 -227
8 -7 15 -17 15 -22 0 -5 11 -33 25 -63 25 -51 28 -54 68 -57 l42 -3 5 -135 c5
-146 4 -142 86 -267 19 -28 34 -54 34 -58 0 -4 20 -33 46 -66 39 -52 47 -69
59 -141 8 -46 16 -117 17 -159 2 -42 8 -83 14 -90 6 -8 19 -38 29 -67 12 -39
24 -56 42 -63 13 -5 92 -9 174 -9 l149 0 0 -185 0 -186 -106 7 -106 7 7 -34
c4 -19 12 -40 17 -46 7 -9 5 -24 -6 -47 -20 -43 -21 -135 -1 -183 9 -20 18
-64 20 -97 3 -33 9 -62 13 -65 36 -25 38 -146 4 -185 -14 -14 -17 -40 -17
-126 l0 -109 -32 -33 c-23 -23 -36 -49 -42 -83 -5 -27 -7 -53 -5 -57 3 -5 59
-8 125 -8 l119 0 0 -180 0 -180 -185 0 c-141 0 -185 3 -186 13 -1 6 -1 37 0
69 1 31 -2 59 -8 62 -23 15 -191 -58 -221 -95 -3 -4 -15 -9 -27 -13 -12 -4
-37 -17 -55 -30 -19 -13 -57 -31 -84 -42 -55 -21 -115 -58 -127 -80 -4 -8 -16
-14 -26 -14 -24 0 -71 -37 -71 -56 0 -8 -17 -32 -37 -53 -46 -46 -122 -134
-185 -215 -46 -58 -93 -109 -207 -221 -28 -27 -51 -54 -52 -60 0 -5 -28 -32
-61 -60 -57 -47 -117 -125 -131 -170 -3 -11 -13 -38 -21 -60 -8 -22 -15 -59
-16 -83 0 -24 -6 -50 -14 -58 -8 -7 -17 -44 -21 -81 -9 -93 -12 -101 -46 -119
-16 -8 -29 -20 -27 -27 3 -19 -12 -109 -24 -140 -7 -18 -7 -32 -1 -38 6 -6 6
-35 1 -77 -5 -37 -6 -91 -3 -120 8 -69 21 -73 184 -70 l126 3 -4 106 c-1 58 0
140 4 182 l7 77 189 0 189 0 0 -185 0 -185 -147 -2 c-82 -1 -167 -1 -190 0
-54 4 -55 1 -51 -201 l3 -157 -108 0 -108 0 6 -52 c4 -29 11 -66 16 -82 13
-41 12 -43 -16 -50 -14 -4 -25 -12 -25 -19 0 -15 -41 -57 -56 -57 -16 0 -69
-60 -97 -110 -53 -92 -65 -150 -53 -263 6 -61 73 -201 123 -256 10 -11 27 -32
38 -46 20 -27 100 -119 143 -165 28 -30 101 -125 124 -161 9 -14 28 -66 43
-117 l28 -92 164 0 163 0 -2 -177 -3 -178 -115 -5 -115 -5 2 -30 c13 -236 25
-367 38 -392 8 -15 15 -39 15 -53 0 -14 9 -43 20 -65 11 -22 19 -55 20 -72 0
-23 10 -45 34 -70 18 -21 48 -66 66 -100 l33 -62 -26 -40 c-15 -22 -27 -45
-27 -51 0 -5 -5 -10 -11 -10 -24 0 -38 -67 -33 -156 9 -147 41 -200 40 -66 -1
56 2 77 12 76 6 -1 93 -2 191 -2 l179 -2 1 -180 2 -180 -150 0 c-84 0 -152 -4
-156 -10 -10 -17 66 -112 182 -229 63 -62 116 -111 119 -108 3 3 6 55 7 115 1
63 7 116 13 122 7 7 106 9 305 8 l294 -3 3 -267 2 -267 42 -12 c23 -6 51 -12
63 -13 11 -1 42 -12 67 -24 33 -17 52 -20 69 -14 13 5 55 5 94 1 121 -14 255
-11 302 7 39 15 44 15 67 0 33 -21 53 -20 68 4 9 13 24 20 46 20 42 0 81 21
107 56 11 15 32 43 47 62 16 19 28 40 28 46 0 6 14 31 30 55 29 42 30 49 30
147 l0 104 343 2 342 3 -4 267 -4 267 39 6 c94 15 84 -6 84 183 0 117 -4 172
-12 180 -7 7 -34 12 -60 12 l-48 0 0 174 0 173 31 7 c17 3 42 3 55 0 14 -4 85
-3 160 1 l134 7 -2 182 -3 181 -187 3 -188 2 0 180 0 180 140 0 140 0 0 185 0
185 -140 0 -140 0 0 -185 0 -185 -195 0 -195 0 0 190 0 190 195 0 195 0 0 175
0 174 183 3 c100 2 185 2 190 0 4 -2 7 -86 7 -188 l0 -184 195 0 195 0 0 190
0 190 -189 0 c-223 0 -201 -20 -201 180 0 200 -22 180 201 180 l189 0 0 180 0
180 275 0 275 0 0 190 0 190 -280 0 -280 0 0 -185 0 -185 -190 0 -190 0 0 -94
0 -93 -32 -5 c-47 -7 -238 -1 -246 7 -9 8 -15 491 -7 522 5 23 7 23 180 23
l175 0 -1 171 c0 94 -3 177 -6 185 -3 8 -16 14 -29 14 l-24 0 0 185 0 185
-195 0 -195 0 0 180 0 180 183 0 c100 0 192 3 205 6 29 8 24 25 -32 107 -23
34 -48 77 -55 95 -7 17 -17 32 -22 32 -4 0 -19 18 -32 40 -13 23 -80 98 -149
168 -69 71 -138 150 -153 178 -16 27 -40 64 -53 82 l-24 32 -124 0 -124 0 0
180 0 179 88 3 87 3 0 180 0 180 -87 3 -88 3 0 179 0 180 190 0 190 0 2 -182
3 -183 188 -3 187 -2 0 -180 0 -180 190 0 190 0 0 -180 0 -180 -65 0 c-40 0
-65 -4 -65 -11 0 -13 90 -129 101 -129 4 0 5 -17 2 -38 -4 -27 -1 -42 11 -51
9 -7 16 -12 17 -10 0 2 2 54 5 114 3 61 8 112 11 115 7 8 303 12 340 5 l33 -6
0 -179 0 -180 -155 0 c-125 0 -155 -3 -155 -14 0 -12 36 -95 59 -136 5 -8 14
-26 20 -40 6 -14 15 -32 21 -40 6 -8 22 -40 36 -70 14 -30 39 -80 54 -110 16
-30 29 -61 29 -69 1 -8 7 -22 15 -30 8 -9 29 -45 48 -81 18 -36 45 -82 58
-102 l25 -38 163 0 162 0 0 -185 0 -185 190 0 190 0 0 -180 c0 -180 0 -180
-22 -180 -13 -1 -84 -1 -158 -1 -74 0 -140 -4 -146 -10 -14 -12 -1 -101 20
-131 9 -12 16 -29 16 -38 0 -8 6 -27 14 -41 7 -14 16 -38 20 -53 4 -15 17 -43
29 -62 21 -33 24 -34 87 -34 36 0 82 -3 103 -6 l37 -7 0 -173 c0 -141 -3 -174
-14 -174 -24 0 -38 -26 -21 -40 8 -7 15 -20 15 -30 0 -10 7 -23 15 -30 8 -7
15 -21 15 -30 0 -10 7 -31 15 -47 30 -60 55 -120 55 -135 0 -8 8 -26 19 -39
19 -25 101 -261 101 -291 0 -10 7 -36 16 -57 l16 -40 76 -3 77 -3 5 -180 5
-180 188 -3 187 -2 0 -180 0 -179 -147 -3 c-122 -3 -148 -6 -151 -18 -1 -8 30
-56 71 -105 63 -78 78 -91 112 -98 22 -4 58 -13 80 -18 83 -21 90 -21 109 0
25 28 40 26 54 -3 6 -14 22 -32 35 -41 24 -15 27 -14 71 15 50 34 64 53 73
103 12 66 14 189 4 239 -10 46 -10 53 9 73 25 27 25 41 0 55 -13 7 -20 21 -20
39 0 15 -3 49 -6 75 l-7 47 -106 -1 c-58 -1 -123 -1 -143 -1 l-38 1 0 185 0
185 100 0 c112 0 119 6 80 65 -11 17 -20 41 -20 54 0 13 -9 54 -19 90 -11 36
-25 92 -31 123 -6 32 -16 60 -21 63 -5 4 -9 21 -9 39 0 18 -3 36 -7 40 -8 8
-7 3 -30 133 -10 57 -23 107 -29 113 -7 7 -77 10 -202 8 l-192 -3 -2 178 c0
97 -1 182 -2 188 -1 8 49 11 174 10 97 -1 183 1 193 5 15 5 17 25 17 180 l0
174 190 0 190 0 0 -180 0 -180 -130 0 c-84 0 -130 -4 -130 -11 0 -9 72 -97
148 -179 37 -40 136 -162 272 -335 111 -142 182 -215 210 -215 16 0 20 -7 20
-31 l0 -31 100 4 100 3 0 -152 0 -153 90 0 89 0 3 -112 3 -113 52 0 52 1 3
-71 3 -70 143 -3 142 -3 0 186 0 185 -200 0 -200 0 0 180 0 180 244 0 c134 0
251 3 260 6 14 5 16 30 16 169 0 182 3 175 -76 175 l-44 0 0 378 0 377 -200
-3 -200 -3 0 185 0 186 145 0 145 0 0 179 0 178 -92 7 c-50 3 -113 6 -140 6
l-48 0 0 180 0 180 -200 0 -200 0 0 -180 0 -180 193 -2 192 -3 3 -182 3 -183
-386 0 -385 0 0 365 0 365 191 2 191 3 -1 355 c0 195 -1 361 -1 368 0 10 -41
12 -187 10 l-188 -3 -3 -182 -2 -183 -380 0 -380 0 0 180 0 180 25 6 c13 3
183 4 377 2 l353 -3 0 180 0 180 -377 3 -378 2 0 100 0 100 -192 -2 -193 -3 0
-98 0 -97 -192 0 -193 0 0 185 0 185 385 0 385 0 0 180 0 180 188 2 187 3 3
368 2 367 -178 0 c-125 0 -182 -4 -190 -12 -8 -8 -12 -60 -12 -169 0 -87 -3
-164 -6 -173 -5 -14 -31 -16 -189 -16 -158 0 -184 2 -189 16 -3 9 -6 56 -6
105 l0 89 -190 0 -190 0 0 -100 0 -100 190 0 190 0 0 -190 0 -190 -190 0 -190
0 0 185 0 185 -187 2 -188 3 -3 178 -2 177 195 0 195 0 0 185 0 185 185 0 185
0 0 -180 c0 -206 -6 -194 101 -188 l54 3 3 175 c1 96 6 178 11 183 4 4 126 8
270 8 l261 -1 0 175 0 175 -155 0 -155 0 -2 193 -3 192 -190 0 -190 0 -3 -182
-2 -183 -190 0 -190 0 2 183 3 182 188 3 187 2 0 180 0 180 144 0 c110 0 145
3 149 13 3 8 6 83 6 168 2 197 11 187 -164 191 l-130 3 -5 165 -5 165 -122 3
-123 3 -2 192 -3 192 -63 0 -62 0 0 157 c0 86 -3 163 -6 172 -5 12 -21 16 -70
16 l-64 0 0 195 0 195 -120 0 -120 0 0 185 0 185 -189 0 c-163 0 -190 -2 -195
-16 -3 -9 -6 -92 -6 -184 l0 -169 -187 2 -188 2 -3 183 -2 182 190 0 c145 0
190 3 190 13 1 6 0 87 0 180 l-1 167 101 1 c55 1 110 2 123 3 22 1 22 1 22
186 l0 185 -108 3 c-84 2 -111 -1 -122 -12 -12 -12 -15 -49 -15 -185 l0 -171
-190 0 -190 0 0 180 0 180 -187 2 -188 3 -3 183 -2 182 110 0 110 0 0 174 c0
179 -2 188 -40 191 -8 1 -52 2 -97 3 l-83 2 0 175 0 175 173 2 172 3 3 174 c2
133 -1 176 -10 183 -7 4 -86 8 -175 8 l-163 0 0 -180 0 -180 -190 0 -190 0 0
173 c0 94 -4 178 -8 184 -6 9 -60 13 -192 15 l-185 3 -3 178 -2 177 190 0 190
0 6 24 c3 14 4 96 2 184 l-3 160 163 7 c147 6 163 9 173 27 10 19 11 292 1
330 -4 17 -21 18 -203 18 l-199 0 -2 168 -3 167 -150 3 c-104 2 -152 6 -157
15 -4 7 -8 92 -8 190 l0 177 145 0 145 0 -2 183 -3 182 -34 5 c-32 5 -35 9
-46 55 -20 86 -62 163 -122 226 -106 112 -128 130 -197 165 -39 19 -93 55
-122 80 -55 47 -140 106 -185 130 -104 53 -363 113 -584 134 -109 10 -477 14
-486 5z m-419 -605 l0 -180 -190 0 -190 0 0 180 0 180 190 0 190 0 0 -180z
m760 -10 l0 -180 195 0 195 0 0 -185 0 -185 -195 0 -195 0 0 185 0 185 -190 0
-190 0 0 180 0 180 190 0 190 0 0 -180z m1150 -370 l0 -180 -190 0 -190 0 0
180 0 180 190 0 190 0 0 -180z m-2680 -350 l0 -179 -162 -3 c-90 -2 -175 -2
-190 0 l-28 3 0 180 0 179 190 0 190 0 0 -180z m1920 -369 l0 -190 -179 -1
c-98 0 -186 2 -195 6 -14 5 -16 29 -16 190 l0 184 195 0 195 0 0 -189z m158
-373 l2 -188 -80 0 -80 0 0 -180 0 -180 -195 0 -195 0 0 185 0 185 195 0 195
0 0 178 c0 98 3 182 7 185 3 4 38 6 77 5 l71 -3 3 -187z m602 -368 l0 -180
-190 0 -190 0 0 180 0 180 190 0 190 0 0 -180z m-760 -1465 l0 -185 190 0 190
0 0 -185 0 -185 190 0 190 0 0 -180 0 -180 -190 0 -190 0 0 180 0 180 -190 0
-190 0 0 185 0 185 -195 0 -195 0 0 -175 0 -175 -184 0 c-182 0 -184 0 -190
23 -3 12 -6 93 -6 180 l0 157 190 0 190 0 0 180 0 180 195 0 195 0 0 -185z
m758 -2 l2 -183 189 0 c163 0 190 -2 195 -16 8 -21 8 -249 0 -308 l-7 -46
-186 2 -186 3 -3 182 -2 183 -188 2 -187 3 -3 170 c-1 93 0 175 3 182 3 11 44
13 187 11 l183 -3 3 -182z m382 -939 c6 -14 10 -97 10 -185 l0 -159 -195 0
-195 0 0 178 c0 98 3 182 7 185 3 4 87 7 185 7 l178 0 10 -26z m-1530 -514 l0
-180 -190 0 -190 0 0 180 0 180 190 0 190 0 0 -180z m770 -9 c0 -162 -2 -179
-17 -182 -10 -2 -96 -3 -190 -1 l-173 3 0 179 0 180 190 0 190 0 0 -179z
m-1220 -371 l0 -180 -185 0 -185 0 0 180 0 180 185 0 185 0 0 -180z m1980 90
l0 -90 -90 0 -90 0 0 90 0 90 90 0 90 0 0 -90z m770 -90 l0 -180 -190 0 -190
0 0 180 0 180 190 0 190 0 0 -180z m770 0 l0 -180 -190 0 -190 0 0 180 0 180
190 0 190 0 0 -180z m-2752 -292 l3 -108 -376 0 -375 0 0 104 c0 74 4 106 13
109 6 3 174 5 372 4 l360 -2 3 -107z m1212 -73 l0 -186 -380 2 -380 1 0 177
c0 98 3 181 7 184 3 4 174 7 380 7 l373 0 0 -185z m1150 5 c0 -96 -4 -178 -9
-183 -4 -4 -88 -6 -187 -5 l-179 3 -3 170 c-1 93 0 175 3 182 3 11 45 13 191
11 l186 -3 -2 -175z m385 -370 l0 -175 -179 -5 c-98 -3 -182 -3 -186 0 -7 4
-14 255 -11 343 1 16 15 17 189 15 l187 -3 0 -175z m-1915 -355 l0 -185 -190
0 -190 0 0 179 c0 134 3 181 13 184 6 3 92 6 190 6 l177 1 0 -185z m-770 -10
l0 -185 -185 0 -185 0 0 180 0 180 178 3 c97 1 180 4 185 5 4 1 7 -81 7 -183z
m1376 175 l164 0 0 -180 0 -180 -190 0 -190 0 0 179 c0 183 3 196 38 185 8 -2
88 -4 178 -4z m1694 -180 l0 -180 -190 0 -190 0 0 180 0 180 190 0 190 0 0
-180z m-1916 -202 c8 -30 8 -229 0 -295 l-7 -53 -80 0 -80 0 6 98 c4 53 7 136
7 185 l0 87 74 0 c68 0 74 -2 80 -22z m1530 6 c3 -9 6 -92 6 -185 l0 -169
-190 0 -190 0 0 185 0 185 184 0 c158 0 185 -2 190 -16z m-2684 -524 l0 -180
-189 0 -188 0 -2 154 c-1 84 1 165 5 180 l6 26 184 0 184 0 0 -180z m770 0 l0
-180 -190 0 -190 0 0 173 c0 96 3 177 7 180 3 4 89 7 190 7 l183 0 0 -180z
m770 -10 l0 -180 -190 0 -190 0 0 180 0 180 190 0 190 0 0 -180z m380 -360 l0
-190 -190 0 -190 0 0 183 c0 101 3 187 7 190 3 4 89 7 190 7 l183 0 0 -190z
m768 -2 l-3 -183 -187 -3 -188 -2 0 40 c0 22 -2 93 -4 157 -2 65 -2 130 1 146
l6 27 188 0 189 0 -2 -182z m-2688 -358 l0 -180 -184 0 c-158 0 -185 2 -190
16 -3 9 -6 82 -6 164 0 82 3 155 6 164 5 14 32 16 190 16 l184 0 0 -180z
m1184 143 c4 -16 4 -73 2 -128 -3 -55 -5 -124 -6 -152 l0 -53 -184 0 c-182 0
-184 0 -190 23 -3 12 -6 93 -6 180 l0 157 189 0 189 0 6 -27z m1116 -153 l0
-180 -190 0 -190 0 0 164 c0 90 3 171 6 180 5 14 32 16 190 16 l184 0 0 -180z
m770 0 l0 -180 -190 0 -190 0 0 180 0 180 190 0 190 0 0 -180z m-1150 -370 l0
-180 -190 0 -190 0 0 -185 0 -185 -190 0 -190 0 0 179 c0 154 2 180 16 185 9
3 94 6 190 6 l174 0 0 180 0 180 190 0 190 0 0 -180z m-1152 -374 c2 -153 -1
-201 -10 -208 -7 -4 -93 -8 -190 -8 l-178 0 0 -180 0 -180 -190 0 -190 0 0
180 0 180 190 0 190 0 0 203 c0 112 3 207 7 211 4 3 88 5 187 4 l181 -3 3
-199z m1516 188 c14 -5 16 -31 16 -185 l0 -179 -184 0 c-158 0 -185 2 -190 16
-8 21 -8 339 1 347 8 9 336 9 357 1z m14 -832 l2 -262 -187 2 -188 3 -2 175
-2 175 -190 3 -191 2 0 79 c0 43 3 81 7 84 4 4 173 6 377 5 l371 -3 3 -263z
m-1910 -439 l2 -183 -190 0 -190 0 0 185 0 185 188 -2 187 -3 3 -182z m767
135 c3 -24 5 -106 3 -183 l-3 -140 -190 0 -190 0 -3 174 c-2 133 1 176 10 183
7 4 93 8 190 8 l177 0 6 -42z m1530 10 c3 -13 4 -93 3 -178 l-3 -155 -187 -3
-187 -2 -3 147 c-2 82 -2 163 0 181 l3 32 184 0 c183 0 185 0 190 -22z m-1915
-518 l0 -180 -187 -2 -188 -3 -5 -175 -5 -175 -187 -3 -188 -2 0 -180 0 -180
-189 0 -188 0 -7 115 c-4 64 -4 145 -1 180 l7 65 189 0 189 0 2 183 3 182 185
2 185 2 3 175 2 176 190 0 190 0 0 -180z m3068 -7 c-2 -98 -6 -177 -10 -175
-5 1 -177 2 -383 2 l-375 0 0 50 0 50 195 0 195 0 0 125 0 125 190 0 190 0 -2
-177z m-3338 -728 l0 -195 -55 0 -55 0 0 -170 0 -170 -190 0 -190 0 0 180 0
180 190 0 190 0 0 185 0 185 55 0 55 0 0 -195z m1040 0 l0 -185 -195 0 -195 0
0 185 0 185 195 0 195 0 0 -185z m1530 3 l0 -183 -190 0 -190 0 0 183 0 182
190 0 190 0 0 -182z m767 5 l2 -173 -195 0 -194 0 0 168 c0 93 3 172 7 176 4
3 90 5 192 4 l186 -3 2 -172z m-4217 -363 l0 -180 -190 0 -190 0 0 173 c0 96
3 177 7 180 3 4 89 7 190 7 l183 0 0 -180z m4600 -10 l0 -180 -190 0 -190 0 0
180 0 180 190 0 190 0 0 -180z m-4600 -720 l0 -179 -167 -3 c-93 -2 -178 -2
-190 0 -21 3 -22 6 -23 183 l0 179 190 0 190 0 0 -180z m768 -12 l-3 -182
-181 3 c-154 2 -182 0 -193 -13 -11 -13 -12 -80 -6 -344 6 -242 4 -334 -4
-350 -11 -21 -18 -22 -186 -22 -95 0 -176 4 -179 8 -3 5 -8 169 -11 365 l-7
357 194 2 193 3 3 178 2 177 190 0 190 0 -2 -182z m766 121 c3 -34 6 -115 6
-180 l0 -118 -182 -3 c-101 -2 -189 -1 -195 1 -14 3 -18 211 -7 309 l7 52 182
0 182 0 7 -61z m3066 -118 c0 -135 -3 -180 -12 -182 -7 -2 -93 -3 -190 -1
l-178 3 0 179 0 180 190 0 190 0 0 -179z m-4980 -366 l0 -185 -190 0 -190 0 0
185 0 185 190 0 190 0 0 -185z m6117 170 c9 -3 12 -48 10 -177 l-2 -173 -182
-3 -182 -2 -3 177 c-2 98 -2 180 -1 183 1 6 342 1 360 -5z m-4197 -529 c0 -90
-3 -171 -6 -180 -9 -24 -345 -24 -368 0 -13 13 -16 43 -16 173 0 87 3 161 7
164 3 4 91 7 195 7 l188 0 0 -164z m380 -376 l0 -180 -190 0 -190 0 0 180 0
180 190 0 190 0 0 -180z m3828 3 l-3 -178 -176 -5 c-97 -3 -184 -4 -193 -2
-14 3 -16 25 -16 183 l0 179 195 0 195 0 -2 -177z m-6788 -163 l0 -180 -190 0
-190 0 0 180 0 180 190 0 190 0 0 -180z m1024 -16 c14 -5 16 -31 16 -185 l0
-179 -191 0 -190 0 2 178 c1 119 5 179 13 184 13 9 328 11 350 2z m-636 -376
l2 -178 -190 0 -190 0 0 180 0 180 188 -2 187 -3 3 -177z m655 -360 c8 -33 9
-332 1 -351 -5 -15 -28 -17 -195 -17 l-189 0 0 188 c0 104 3 192 7 195 3 4 88
7 189 7 180 0 182 0 187 -22z m736 6 l31 -6 0 -179 0 -179 -190 0 -190 0 0
185 0 185 159 0 c87 0 173 -3 190 -6z m795 -60 c8 -59 8 -277 0 -298 -5 -14
-31 -16 -189 -16 l-182 0 -7 53 c-3 28 -6 109 -6 180 l0 127 189 0 188 0 7
-46z m-1146 -491 l2 -183 -189 0 c-163 0 -190 2 -195 16 -8 21 -8 318 0 338 6
14 29 16 193 14 l186 -3 3 -182z m1524 -8 l3 -185 -187 0 -188 0 0 185 0 185
185 0 184 0 3 -185z m-2304 -277 l-3 -183 -145 -3 c-80 -2 -164 0 -187 3 l-43
6 0 180 0 179 190 0 190 0 -2 -182z m782 -443 l0 -185 -189 0 -188 0 -7 42
c-7 45 -7 308 1 321 2 4 89 7 194 7 l189 0 0 -185z m760 -15 l0 -180 -190 0
-190 0 0 180 0 180 190 0 190 0 0 -180z m770 0 l0 -180 -190 0 -190 0 0 -185
0 -185 -195 0 -195 0 2 183 3 182 193 3 192 2 0 180 0 180 190 0 190 0 0 -180z"/>
<path d="M13917 21883 c-10 -9 -8 -635 1 -651 7 -9 79 -12 328 -10 l319 3 3
333 2 332 -323 0 c-178 0 -327 -3 -330 -7z"/>
<path d="M15230 21566 c0 -249 3 -327 13 -333 20 -13 603 -16 627 -3 19 10 20
19 20 335 l0 325 -330 0 -330 0 0 -324z"/>
<path d="M6627 21192 c-86 -86 -157 -162 -157 -168 0 -26 28 -36 65 -24 28 9
43 9 64 0 41 -17 668 -650 676 -682 4 -15 2 -43 -5 -63 -10 -31 -10 -39 6 -56
18 -20 21 -17 181 143 159 159 162 163 144 181 -17 17 -22 18 -55 6 -33 -12
-41 -11 -73 6 -40 22 -640 631 -661 672 -12 22 -12 31 1 64 14 36 14 39 -7 58
l-22 20 -157 -157z"/>
<path d="M17880 20890 l0 -330 313 2 312 3 0 325 0 325 -312 3 -313 2 0 -330z"/>
<path d="M6184 20738 c-42 -51 -88 -106 -102 -122 -19 -22 -22 -33 -15 -45 11
-16 22 -17 99 -5 45 6 18 25 314 -216 69 -56 160 -129 203 -162 43 -33 77 -62
74 -64 -2 -2 -53 7 -113 21 -60 13 -271 52 -469 85 l-360 62 -20 -25 c-11 -13
-62 -75 -113 -137 l-94 -114 23 -17 c21 -15 26 -16 51 -3 42 22 73 17 121 -20
25 -19 165 -134 313 -257 148 -122 289 -238 312 -258 61 -50 76 -83 62 -127
-11 -33 -10 -37 11 -52 13 -9 25 -16 27 -15 11 7 202 244 202 250 0 5 -9 14
-20 21 -17 10 -26 10 -51 -3 -18 -10 -41 -14 -58 -10 -15 3 -110 74 -212 157
-101 83 -233 189 -292 236 -59 46 -106 86 -104 88 2 2 19 -1 38 -6 41 -12 923
-160 953 -160 14 0 36 19 63 53 23 28 53 66 67 83 l26 32 -163 133 c-89 74
-245 203 -347 287 -332 275 -333 276 -310 336 9 23 7 32 -6 47 -10 11 -21 19
-25 19 -5 0 -43 -42 -85 -92z"/>
<path d="M14575 20547 c-3 -7 -4 -154 -3 -327 l3 -315 328 -3 327 -2 0 330 0
330 -325 0 c-253 0 -327 -3 -330 -13z"/>
<path d="M16560 20230 l0 -330 330 0 330 0 0 330 0 330 -330 0 -330 0 0 -330z"/>
<path d="M5337 19660 c-48 -71 -87 -133 -87 -138 0 -4 9 -13 20 -19 16 -11 25
-9 55 8 22 13 44 19 59 15 13 -3 128 -75 257 -159 129 -85 260 -169 292 -188
55 -32 76 -56 40 -45 -42 12 -933 82 -939 73 0 -1 -45 -67 -98 -147 l-97 -144
23 -17 c21 -16 24 -16 58 3 25 15 44 19 64 14 38 -10 773 -502 792 -531 11
-18 14 -36 9 -64 -5 -33 -3 -41 14 -50 11 -6 22 -11 25 -11 2 0 45 60 95 134
l90 134 -25 17 c-23 15 -28 15 -42 2 -29 -26 -67 -30 -103 -11 -19 9 -119 74
-224 144 -104 69 -233 153 -285 185 -123 76 -125 79 -65 71 28 -3 228 -17 445
-30 217 -14 425 -28 461 -31 l66 -6 62 93 61 93 -22 17 c-13 10 -201 136 -418
281 -217 146 -407 276 -422 290 -23 22 -28 34 -28 76 0 39 -4 53 -19 61 -11 5
-21 10 -23 10 -2 0 -43 -58 -91 -130z"/>
<path d="M18552 18938 l3 -463 430 -3 c237 -1 440 0 453 3 l22 5 -2 458 -3
457 -453 3 -452 2 2 -462z"/>
<path d="M20380 18953 c0 -214 3 -452 7 -531 l6 -142 336 2 336 3 0 525 0 525
-342 3 -343 2 0 -387z"/>
<path d="M13460 19070 l0 -180 125 0 125 0 -2 178 -3 177 -122 3 -123 3 0
-181z"/>
<path d="M16560 18905 l0 -335 -329 0 -329 0 -7 -164 c-4 -91 -5 -238 -2 -328
l4 -163 332 -3 331 -2 0 330 0 330 330 0 330 0 -2 333 -3 332 -327 3 -328 2 0
-335z"/>
<path d="M4482 18188 l-49 -103 30 -35 c17 -19 186 -194 375 -388 190 -194
359 -371 375 -393 21 -28 32 -56 35 -90 3 -37 9 -50 24 -55 11 -3 24 -2 28 3
11 11 150 309 150 321 0 5 -11 14 -25 20 -21 10 -26 9 -34 -7 -6 -10 -24 -24
-40 -31 -26 -10 -36 -9 -75 9 -24 12 -72 48 -106 79 l-62 57 77 165 c43 91 80
167 81 169 7 9 189 -31 224 -49 40 -20 55 -52 45 -93 -5 -18 -1 -26 19 -35 22
-10 27 -9 35 6 35 65 191 406 191 417 0 24 -40 24 -77 -1 -21 -14 -50 -24 -70
-24 -19 0 -273 36 -564 80 -291 44 -531 80 -534 80 -2 0 -26 -46 -53 -102z
m441 -216 c125 -21 228 -41 229 -46 2 -10 -115 -265 -122 -265 -3 0 -86 78
-185 174 -99 96 -173 175 -165 175 8 -1 118 -17 243 -38z"/>
<path d="M17220 17765 l0 -515 330 0 330 0 0 330 0 330 -135 0 -135 0 0 185 0
185 -195 0 -195 0 0 -515z"/>
<path d="M14225 18098 c-3 -18 -4 -177 -3 -353 l3 -320 120 0 120 0 3 353 2
352 -119 0 -120 0 -6 -32z"/>
<path d="M15230 17580 l0 -330 329 0 c182 0 331 3 333 8 3 4 2 152 0 330 l-4
322 -329 0 -329 0 0 -330z"/>
<path d="M20387 17553 c-4 -3 -7 -210 -7 -460 l0 -453 -457 -2 -458 -3 -3
-457 -2 -458 -458 -2 -457 -3 0 -455 0 -455 910 -2 c623 -2 912 0 920 8 7 7 9
296 8 920 l-3 909 460 0 460 0 2 -457 3 -458 457 -3 458 -2 2 -458 3 -457 243
-3 242 -2 0 460 0 460 -240 0 -240 0 0 460 0 460 -465 0 -465 0 0 460 0 460
-453 0 c-250 0 -457 -3 -460 -7z"/>
<path d="M4290 17317 c-36 -12 -89 -39 -117 -60 -68 -50 -143 -162 -179 -269
-25 -73 -29 -97 -29 -198 0 -95 4 -124 23 -170 62 -156 223 -279 458 -353 316
-99 538 -22 656 229 53 114 71 198 66 316 -3 88 -7 102 -43 173 -48 95 -133
176 -246 235 -214 111 -439 148 -589 97z m170 -249 c82 -13 253 -70 345 -113
94 -45 175 -105 210 -155 37 -53 46 -139 20 -194 -60 -125 -204 -156 -440 -91
-258 70 -444 174 -497 278 -30 60 -22 155 19 205 69 85 153 102 343 70z"/>
<path d="M16560 16255 l0 -335 328 2 327 3 0 330 0 330 -327 3 -328 2 0 -335z"/>
<path d="M3722 15985 c-29 -119 -50 -221 -46 -226 11 -19 50 -8 76 21 19 22
35 30 60 30 18 0 134 -24 258 -54 124 -30 302 -73 395 -96 271 -65 295 -76
295 -141 0 -21 6 -28 26 -33 15 -4 30 -3 34 1 3 4 28 100 55 213 26 113 50
210 52 216 2 6 -8 14 -23 17 -21 4 -33 -2 -56 -29 -21 -24 -39 -34 -59 -34
-64 0 -886 204 -918 228 -13 10 -29 36 -36 58 -8 31 -16 40 -36 42 -25 3 -26
0 -77 -213z"/>
<path d="M16560 14930 l0 -330 330 0 330 0 0 -330 0 -330 330 0 330 0 -2 328
-3 327 -327 3 -328 2 0 330 0 330 -330 0 -330 0 0 -330z"/>
<path d="M3830 15033 c0 -15 -49 -547 -55 -595 -5 -45 -4 -48 18 -48 15 0 29
9 37 25 8 14 25 28 38 32 32 8 707 -54 731 -67 11 -5 24 -23 29 -40 7 -20 18
-30 31 -30 22 0 23 6 41 194 15 161 14 166 -14 166 -17 0 -26 -7 -30 -25 -11
-42 -33 -47 -183 -34 -186 16 -181 14 -173 84 7 61 22 81 70 91 48 11 50 13
50 52 l0 39 -97 7 c-54 3 -119 9 -145 12 l-48 7 0 -41 c0 -31 4 -42 19 -47 11
-3 31 -15 45 -26 22 -17 26 -28 26 -72 0 -83 6 -81 -179 -66 l-161 13 0 30 c0
17 5 60 10 95 11 76 34 106 100 125 44 13 45 14 48 59 l3 45 -38 6 c-88 12
-173 17 -173 9z"/>
<path d="M21305 14778 c-3 -13 -4 -216 -3 -453 l3 -430 457 -3 458 -2 2 -463
3 -462 170 0 170 0 3 463 2 462 -175 0 -175 0 -2 453 -3 452 -452 3 -453 2 -5
-22z"/>
<path d="M4055 14158 c-75 -14 -168 -63 -210 -109 -130 -144 -122 -434 15
-568 85 -82 202 -121 371 -121 299 0 451 131 452 390 1 223 -105 362 -310 405
-76 16 -241 18 -318 3z m294 -208 c146 -16 230 -63 252 -142 22 -83 -27 -160
-127 -198 -113 -42 -338 -49 -478 -14 -81 20 -125 49 -147 98 -62 138 39 234
271 256 110 11 126 11 229 0z"/>
<path d="M16560 13605 l0 -335 318 0 c174 0 323 4 330 8 9 7 12 80 10 333 l-3
324 -327 3 -328 2 0 -335z"/>
<path d="M19466 13864 c-3 -9 -6 -213 -6 -453 l0 -438 231 -6 c127 -4 541 -4
920 0 l689 6 0 454 0 453 -914 0 c-824 0 -914 -2 -920 -16z"/>
<path d="M17600 13090 l0 -180 -190 0 -190 0 0 -150 0 -150 330 0 330 0 -2
328 -3 327 -137 3 -138 3 0 -181z"/>
<path d="M18590 12961 l-35 -6 -3 -452 -2 -453 455 0 455 0 5 23 c3 12 4 218
3 457 l-3 435 -420 1 c-231 1 -436 -1 -455 -5z"/>
<path d="M21307 12953 c-4 -3 -7 -208 -7 -455 l0 -448 -447 0 c-247 0 -454 -4
-461 -8 -10 -7 -12 -105 -10 -458 l3 -449 458 -3 457 -2 0 -460 0 -460 -457
-2 -458 -3 -2 -450 c-1 -330 2 -452 10 -457 7 -4 213 -8 460 -8 l447 0 0 -400
0 -400 155 0 155 0 -2 443 -3 442 -72 3 -73 3 0 444 0 445 203 0 c112 0 346 3
520 7 l317 6 -2 436 -3 436 -332 3 -333 2 -2 445 -3 445 195 2 195 3 3 453 2
452 -453 0 c-250 0 -457 -3 -460 -7z"/>
<path d="M3514 12698 c3 -18 15 -96 27 -173 11 -77 22 -142 24 -144 11 -10 55
11 55 28 0 10 9 26 21 37 38 34 112 23 326 -48 l193 -63 -191 -124 c-149 -96
-201 -125 -234 -129 -38 -4 -45 -1 -60 22 -17 25 -58 36 -69 18 -2 -4 11 -107
29 -227 19 -121 35 -223 35 -226 0 -3 14 -4 30 -1 21 3 30 10 30 24 0 35 74
96 326 266 138 93 259 174 270 180 10 5 90 20 176 33 178 26 194 23 229 -36
17 -29 26 -34 43 -29 11 4 23 8 24 10 5 4 -61 453 -68 464 -3 4 -17 6 -33 3
-22 -4 -27 -11 -27 -33 0 -40 -33 -76 -82 -88 -24 -5 -99 -18 -168 -28 l-125
-17 -265 93 c-296 103 -422 158 -446 195 -11 17 -25 25 -46 25 -29 0 -30 -2
-24 -32z"/>
<path d="M16583 12293 l-63 -4 0 -179 0 -180 190 0 190 0 2 -182 3 -183 130 0
130 0 3 183 2 182 -130 0 -130 0 0 179 0 178 -52 7 c-53 6 -155 5 -275 -1z"/>
<path d="M3847 11525 c-71 -18 -130 -35 -133 -38 -5 -5 236 -979 245 -988 6
-6 280 57 290 66 9 9 -21 115 -32 115 -54 1 -128 15 -157 28 -38 18 -74 78
-85 142 l-6 35 461 114 c504 126 497 125 535 63 16 -26 25 -31 45 -26 14 3 27
7 29 10 9 9 -113 464 -125 464 -30 0 -44 -13 -44 -42 0 -40 -15 -65 -49 -83
-22 -11 -893 -235 -915 -235 -9 0 -27 81 -28 120 -1 54 31 99 96 139 60 36 62
39 45 107 -8 30 -16 44 -28 43 -9 0 -74 -16 -144 -34z"/>
<path d="M19466 11114 c-4 -9 -6 -212 -6 -450 1 -407 2 -434 19 -443 11 -6
190 -9 457 -8 l439 2 0 455 0 455 -451 2 c-409 2 -453 1 -458 -13z"/>
<path d="M5151 10637 c-18 -8 -26 -22 -29 -47 -5 -45 -17 -59 -70 -82 -68 -31
-796 -286 -834 -293 -30 -6 -41 -2 -71 24 -30 27 -39 30 -61 22 -25 -10 -25
-11 -12 -48 8 -21 42 -117 76 -213 34 -96 63 -176 65 -178 1 -1 14 2 29 7 20
8 26 17 26 40 0 66 16 76 247 157 84 30 224 79 311 110 376 134 385 136 429
87 16 -18 27 -22 47 -17 14 3 26 9 26 13 0 10 -143 415 -149 423 -4 4 -17 2
-30 -5z"/>
<path d="M5155 9977 c-71 -24 -120 -54 -166 -104 -59 -63 -87 -137 -99 -266
-22 -219 -29 -259 -55 -302 -28 -48 -90 -85 -144 -85 -86 0 -162 93 -163 198
0 48 36 118 79 152 l27 21 -27 54 -26 54 -108 -50 c-59 -28 -111 -54 -116 -58
-10 -10 36 -167 77 -262 63 -145 160 -259 254 -302 120 -53 291 -4 370 106 48
68 71 152 82 300 12 154 16 180 40 227 34 67 104 110 178 110 115 0 211 -174
156 -283 -9 -18 -34 -51 -57 -74 l-40 -42 18 -46 c9 -26 23 -49 31 -52 7 -3
65 19 128 49 132 61 125 37 69 210 -70 222 -168 369 -279 424 -65 32 -167 41
-229 21z"/>
<path d="M5720 9330 c-9 -6 -15 -27 -16 -62 -1 -62 -18 -99 -113 -241 -81
-121 -101 -169 -101 -242 0 -30 -2 -55 -4 -55 -3 0 -25 14 -50 30 -103 70
-219 83 -317 38 -123 -56 -192 -154 -191 -268 0 -121 19 -162 257 -565 48 -82
91 -154 95 -158 4 -4 18 -3 31 3 21 9 24 17 21 53 -3 31 2 49 15 64 16 20 664
408 770 462 53 26 83 27 116 0 25 -19 47 -17 75 6 3 2 -215 374 -228 388 -4 5
-17 3 -29 -5 -16 -10 -21 -23 -21 -59 0 -34 -6 -51 -22 -67 -21 -19 -303 -192
-314 -192 -3 0 -17 25 -31 56 -34 74 -27 95 81 254 88 130 159 243 169 271 3
11 -23 66 -70 145 -97 167 -94 163 -123 144z m-259 -746 c34 -17 94 -87 121
-139 17 -32 18 -41 7 -48 -8 -4 -99 -59 -204 -121 l-190 -114 -17 22 c-24 30
-67 120 -74 155 -11 53 5 100 49 148 95 103 220 143 308 97z"/>
<path d="M19466 9274 c-9 -23 -7 -877 2 -891 6 -10 113 -13 458 -15 l449 -3 3
-379 c2 -289 5 -382 15 -388 6 -4 83 -8 170 -8 l157 0 0 395 0 395 -170 0
-170 0 0 455 0 455 -454 0 c-405 0 -455 -2 -460 -16z"/>
<path d="M18753 8373 c-9 -3 -13 -26 -13 -64 l0 -58 -152 -3 -153 -3 -3 -164
c-2 -125 1 -166 10 -173 7 -4 37 -8 66 -8 l52 0 0 -220 0 -220 439 0 c242 0
446 3 455 6 14 5 16 55 16 454 l0 448 -22 6 c-27 7 -678 7 -695 -1z"/>
<path d="M6288 8164 c-65 -48 -118 -91 -118 -98 0 -6 15 -29 33 -50 l33 -39
62 22 c67 23 138 27 174 10 23 -10 161 -171 166 -193 1 -6 -17 -27 -40 -47
-24 -19 -102 -83 -175 -142 l-132 -107 -50 62 c-59 72 -63 100 -27 162 l24 41
-32 38 -31 37 -138 -111 -137 -110 32 -40 c17 -22 36 -37 42 -35 91 39 125 30
189 -53 l46 -57 -151 -123 c-83 -67 -156 -125 -163 -127 -12 -5 -139 145 -164
193 -18 36 -13 76 20 141 l30 61 -33 45 c-18 25 -38 43 -45 41 -7 -2 -57 -41
-112 -86 l-100 -82 103 -126 c56 -69 151 -187 211 -261 187 -232 228 -280 234
-280 3 0 14 7 24 14 15 12 17 20 9 49 -15 55 5 84 129 184 63 51 218 176 344
278 127 103 244 194 262 203 30 14 35 14 73 -3 38 -17 41 -17 59 0 19 17 16
22 -147 224 -328 405 -367 451 -377 451 -5 0 -63 -39 -127 -86z"/>
<path d="M19648 7708 l-3 -243 -90 -5 -90 -5 -3 -268 c-2 -218 0 -268 11 -273
8 -3 139 -6 293 -7 l279 -2 5 305 c3 168 4 403 2 523 l-3 217 -199 0 -200 0
-2 -242z"/>
<path d="M18077 7533 c-9 -8 -9 -326 -1 -347 5 -12 20 -16 60 -16 l54 0 0 179
c0 154 -2 180 -16 185 -21 8 -89 8 -97 -1z"/>
<path d="M6870 6954 c-522 -233 -577 -253 -630 -224 -19 10 -25 9 -44 -9 l-21
-21 133 -132 132 -133 20 21 c19 19 20 22 4 53 -20 41 -8 75 41 114 35 28 654
329 667 325 8 -3 -328 -593 -367 -644 -32 -42 -67 -52 -110 -31 -31 15 -34 15
-50 -3 -17 -19 -12 -25 145 -187 89 -92 168 -169 175 -171 6 -2 18 4 25 13 11
13 11 23 2 49 -7 18 -12 40 -12 49 0 15 119 254 140 282 4 6 22 37 40 70 86
159 220 403 286 522 41 73 74 136 74 140 0 9 -132 143 -140 143 -3 0 -232
-102 -510 -226z"/>
<path d="M7885 6660 c-16 -18 -16 -22 -2 -58 14 -35 14 -41 -3 -78 -16 -34
-480 -605 -562 -691 -36 -37 -66 -47 -104 -33 -21 8 -31 7 -45 -6 -11 -10 -19
-21 -19 -25 0 -17 342 -290 356 -285 24 9 27 34 10 71 -24 51 -11 73 165 285
160 193 223 269 315 383 31 37 72 84 91 104 35 34 38 35 89 29 48 -5 54 -4 65
16 11 20 8 25 -22 48 -18 14 -74 59 -123 100 -213 177 -191 162 -211 140z"/>
<path d="M8165 5832 c-148 -223 -285 -423 -304 -444 -30 -34 -39 -38 -80 -38
-46 0 -71 -13 -71 -36 0 -11 249 -184 266 -184 5 0 15 9 21 20 11 16 9 25 -9
55 -30 51 -22 69 118 280 66 99 149 226 184 283 35 56 65 100 68 97 2 -2 -3
-73 -12 -157 -23 -224 -58 -790 -49 -798 4 -4 71 -49 147 -100 130 -86 140
-91 153 -74 17 23 16 36 -2 60 -36 48 -27 65 235 458 138 206 262 384 278 396
21 17 35 20 66 16 30 -5 41 -3 52 11 7 10 14 21 14 25 0 9 -253 178 -267 178
-26 0 -33 -36 -13 -74 13 -26 16 -45 11 -64 -5 -15 -84 -143 -177 -284 -93
-140 -184 -280 -202 -309 l-33 -54 5 75 c17 223 56 853 56 900 l0 55 -88 58
c-49 31 -90 57 -93 57 -2 -1 -125 -184 -274 -408z"/>
<path d="M9535 5455 c-27 -8 -53 -14 -57 -15 -19 -1 -123 -110 -152 -160 -19
-32 -94 -186 -166 -342 -73 -156 -143 -298 -157 -315 -20 -28 -30 -33 -67 -33
-37 0 -45 -4 -55 -26 -6 -15 -10 -28 -9 -29 2 -1 79 -37 172 -80 159 -72 170
-76 183 -59 17 23 17 41 -1 51 -23 14 -37 51 -30 80 10 39 298 657 325 696 78
114 153 143 255 101 127 -52 160 -143 106 -296 -23 -65 -278 -611 -307 -655
-22 -36 -59 -53 -96 -46 -20 4 -28 -1 -37 -21 -10 -22 -8 -27 11 -41 12 -8 24
-15 28 -15 4 0 78 -34 165 -76 213 -102 199 -98 213 -67 10 21 8 29 -14 55
-14 16 -25 41 -25 54 0 14 64 161 141 327 78 166 152 331 165 367 28 77 31
163 8 240 -52 174 -413 358 -599 305z"/>
</g>
</svg>
