<?xml version="1.0" encoding="utf-8"?>
<!-- Generator: Adobe Illustrator 19.0.0, SVG Export Plug-In . SVG Version: 6.00 Build 0)  -->
<svg version="1.1" xmlns="http://www.w3.org/2000/svg" xmlns:xlink="http://www.w3.org/1999/xlink" x="0px" y="0px"
	 viewBox="0 0 612 400" style="enable-background:new 0 0 612 400;" xml:space="preserve">
<style type="text/css">
	.st0{stroke:#000000;stroke-miterlimit:10;}
	.st1{fill:#FFFFFF;}
	.st2{fill:#DA4826;}
</style>
<g id="Layer_1">
	<polygon id="XMLID_1_" class="st0" points="342.3,0 66,100 66,115 342.3,30 	"/>
	<polygon id="XMLID_2_" class="st0" points="523,65.4 342.3,0 342.3,30 523,85.6 	"/>
	<polygon id="XMLID_4_" class="st0" points="523,340.1 365.8,399.4 365.8,96.2 523,127 	"/>
	<polygon id="XMLID_5_" class="st0" points="387.1,57.5 442.3,73 442.3,98.9 387.1,86.6 	"/>
	<polygon id="XMLID_3_" class="st0" points="66,299.6 342.3,399.4 342.3,60 66,129.9 	"/>
	<g id="XMLID_9_">
		<g id="XMLID_8_">
			<path id="XMLID_92_" class="st1" d="M78.9,188.7l-2.6,37.2c-0.1,1.9-0.2,3.1-0.2,3.6c0,1.4,0.2,2.5,0.6,3.1v1.5l-3.5-0.4v-1.5
				c0.4-0.4,0.5-1.4,0.5-3.1c0-0.5-0.1-1.9-0.2-4.2l-3.1-46.8c-0.2-2.3-0.3-3.9-0.4-4.7c-0.1-0.8-0.3-1.3-0.5-1.6v-1.5l3.7-0.3v1.5
				c-0.3,0.5-0.5,1.4-0.5,2.8c0,0.7,0,1.7,0.1,3.1l2.2,33.7l2.4-34.2c0.1-1.5,0.2-2.5,0.2-2.9c0-1.4-0.2-2.4-0.5-2.7v-1.5l4.1-0.4
				v1.5c-0.4,0.6-0.6,1.7-0.6,3.2c0,0.5,0,1.5,0.1,2.9l2.3,34.6l2.3-34.3c0.1-1.7,0.2-3,0.2-3.8c0-1.4-0.2-2.3-0.6-2.8V169l4.1-0.4
				v1.6c-0.3,0.5-0.5,1.1-0.6,1.8c-0.1,0.7-0.3,2.4-0.4,5l-3.4,48.9c-0.2,2.3-0.2,3.8-0.2,4.6c0,1.6,0.2,2.6,0.6,3v1.5l-3.8-0.4
				v-1.5c0.4-0.3,0.6-1.4,0.6-3.1c0-0.6-0.1-2.1-0.3-4.3L78.9,188.7z"/>
			<path id="XMLID_89_" class="st1" d="M97.6,219l-5.7-0.4l-0.8,9.4c-0.1,1.3-0.2,2.3-0.2,3.1c0,1.4,0.2,2.5,0.6,3.1v1.6l-4-0.5
				v-1.6c0.2-0.2,0.4-0.7,0.5-1.3c0.1-0.6,0.3-1.9,0.4-3.8l4.5-51.6c0.1-1.7,0.2-3,0.2-4c0-1.5-0.2-2.6-0.5-3.2v-1.6l4.4-0.4v1.6
				c-0.4,0.6-0.5,1.6-0.5,3c0,1,0.1,2.1,0.2,3.3l4.9,53.2c0.2,2.3,0.4,3.9,0.6,4.7c0.2,0.9,0.4,1.4,0.6,1.7v1.6l-4.7-0.6v-1.6
				c0.4-0.3,0.6-1.3,0.6-3.1c0-0.7-0.1-1.8-0.2-3.1L97.6,219z M96.8,209.6l-2-24.3l-2,24.2L96.8,209.6z"/>
			<path id="XMLID_86_" class="st1" d="M107.4,208.8v23.5c0,1,0,1.8,0.1,2.4c0.1,0.6,0.3,1,0.5,1.4v1.7l-4.2-0.5v-1.6
				c0.2-0.3,0.4-0.7,0.5-1.3c0.1-0.5,0.1-1.3,0.1-2.3v-59.4c0-1.1,0-1.9-0.1-2.4c-0.1-0.5-0.3-1-0.5-1.3v-1.6l8.4-0.8
				c1.1-0.1,1.9,0.1,2.5,0.7c0.6,0.6,1.2,1.6,1.6,3.2c0.5,1.8,1,4.3,1.2,7.4c0.3,3,0.4,6.3,0.4,9.8c0,11.9-1.3,18.8-3.8,20.8
				l2.7,20.2c0.5,3.6,0.8,5.9,1.1,6.9c0.2,1,0.5,1.6,0.8,1.8v1.7l-5.1-0.6v-1.7c0.3-0.2,0.5-0.9,0.5-1.8c0-0.6-0.2-2.2-0.5-4.6
				l-2.8-21.3L107.4,208.8z M107.4,197.2l4.6,0c0.7,0,1.2-0.1,1.5-0.3c0.3-0.2,0.5-0.7,0.8-1.3c0.5-1.4,0.8-4.1,0.8-7.8
				c0-3.8-0.3-6.4-0.8-7.8c-0.2-0.7-0.5-1.1-0.8-1.3c-0.3-0.2-0.8-0.2-1.5-0.2l-4.6,0.3V197.2z"/>
			<path id="XMLID_84_" class="st1" d="M124.6,207.1v20.3l9.8,0.8c0.2,0,0.4-0.2,0.5-0.7c0.1-0.5,0.2-1.4,0.3-2.8l0.4,0v19.8l-0.4,0
				c-0.1-1.4-0.2-2.3-0.3-2.8c-0.1-0.5-0.3-0.8-0.5-0.8l-13.7-1.6v-1.7c0.3-0.3,0.4-0.8,0.5-1.3c0.1-0.6,0.1-1.4,0.1-2.5v-62.3
				c0-1.1,0-2-0.1-2.5c-0.1-0.6-0.3-1-0.5-1.4v-1.7l13.4-1.2c0.2,0,0.4-0.3,0.5-0.8c0.1-0.5,0.2-1.5,0.3-2.8l0.4,0v19.8l-0.4,0
				c-0.1-1.3-0.2-2.2-0.3-2.8c-0.1-0.5-0.3-0.8-0.5-0.8l-9.5,0.5v17.6l6.1,0c0.2,0,0.4-0.3,0.5-0.8c0.1-0.5,0.2-1.4,0.3-2.8l0.4,0
				v19.1l-0.4,0c-0.1-1.3-0.2-2.2-0.3-2.8c-0.1-0.5-0.3-0.8-0.5-0.8L124.6,207.1z"/>
			<path id="XMLID_82_" class="st1" d="M151.9,208l-9.6-0.3v28.1c0,1.1,0.1,2,0.2,2.7c0.1,0.6,0.3,1.1,0.6,1.5v1.8l-5-0.6v-1.8
				c0.3-0.3,0.5-0.8,0.6-1.4c0.1-0.6,0.2-1.5,0.2-2.6V170c0-1.1-0.1-2-0.2-2.6c-0.1-0.6-0.3-1.1-0.6-1.4v-1.8l5-0.5v1.8
				c-0.3,0.4-0.5,0.9-0.6,1.5c-0.1,0.6-0.2,1.5-0.2,2.7v25.1l9.6-0.1V169c0-1.2-0.1-2.1-0.2-2.7c-0.1-0.6-0.3-1.1-0.6-1.4V163
				l5.4-0.5v1.9c-0.3,0.4-0.5,1-0.6,1.6c-0.1,0.6-0.2,1.6-0.2,2.7v68.4c0,1.2,0.1,2.1,0.2,2.7c0.1,0.6,0.3,1.2,0.6,1.6v1.9l-5.4-0.6
				v-1.9c0.3-0.3,0.5-0.8,0.6-1.4c0.1-0.6,0.2-1.5,0.2-2.7V208z"/>
			<path id="XMLID_79_" class="st1" d="M169.8,159.9c3.3-0.3,6,3.4,7.9,11.3c2.1,8.3,3.2,19.2,3.2,32.6c0,8.2-0.5,15.9-1.5,22.9
				c-2,13.7-5.2,20.2-9.6,19.7c-3.2-0.4-5.7-4.6-7.6-12.5c-1-4.2-1.7-9.2-2.2-15c-0.4-5.1-0.7-10.4-0.7-16c0-8.1,0.5-15.6,1.4-22.4
				C162.5,167.4,165.5,160.5,169.8,159.9z M169.8,174.1c-1.8,0.1-3.3,2.5-4.4,7.3c-1.4,5.6-2.1,12.8-2.1,21.7s0.7,16.1,2.1,21.7
				c1.2,4.8,2.7,7.2,4.5,7.4c1.8,0.2,3.3-2.1,4.5-6.8c0.7-2.8,1.3-6.3,1.7-10.4c0.3-3.7,0.5-7.5,0.5-11.4c0-9.6-0.7-17.2-2.2-22.6
				C173.2,176.4,171.6,174.1,169.8,174.1z"/>
			<path id="XMLID_77_" class="st1" d="M205.6,165.1v51c0,9.6-0.4,16.8-1.3,21.5c-1.5,8.4-4.7,12.3-9.4,11.8
				c-3.3-0.4-5.9-2.9-7.6-7.6c-1-2.7-1.7-6.3-2.1-10.8c-0.4-4.4-0.6-9.7-0.6-15.8v-48.5c0-1.3-0.1-2.3-0.2-3
				c-0.1-0.7-0.4-1.2-0.7-1.6v-2l6.4-0.6v2.1c-0.4,0.4-0.6,1-0.8,1.7c-0.1,0.7-0.2,1.7-0.2,3.1V210c0,5,0.1,8.8,0.2,11.2
				c0.1,2.4,0.4,4.5,0.7,6.1c1,4.4,2.6,6.8,5,7c2.4,0.2,4.2-1.9,5.2-6.3c0.4-1.6,0.6-3.7,0.8-6.2c0.1-2.5,0.2-6.3,0.2-11.5v-44.9
				c0-1.4-0.1-2.4-0.2-3.1c-0.1-0.7-0.4-1.2-0.8-1.6v-2.1l6.5-0.6v2.1c-0.4,0.5-0.7,1.1-0.8,1.8
				C205.7,162.7,205.6,163.7,205.6,165.1z"/>
			<path id="XMLID_75_" class="st1" d="M232.4,163.9l-3,22.8l-0.5-1.1c0-0.5,0-0.8,0-1.1c0-1.6-0.3-3.3-1-5.1
				c-2.1-5.7-4.6-8.4-7.4-8.2c-1.2,0.1-2.3,0.7-3.2,2c-0.7,0.9-1.2,2.3-1.6,4.2c-0.4,1.8-0.6,3.8-0.6,5.9c0,3.5,0.5,5.9,1.6,7.1
				c0.5,0.6,1.7,1.3,3.6,2l2.7,1.1c1.6,0.7,3,1.6,4,2.8c1,1.2,2,2.9,2.8,5.1c0.8,2.3,1.5,5.3,2,9.1c0.5,3.8,0.7,7.8,0.7,12.1
				c0,6.8-0.6,12.8-1.7,17.9c-1,4.7-2.6,8-4.7,10.1c-1.6,1.5-3.2,2.2-5,2c-3.1-0.4-6.2-3.7-9.2-9.9c-0.6-1.2-1-1.9-1.1-1.9
				c-0.1,0-0.4,0.5-0.7,1.4l-0.5-1.1l2.5-22.4l0.5,1c0,0.4,0,0.7,0,0.9c0,2,0.2,3.9,0.7,5.7c0.7,2.7,1.9,5,3.4,7
				c1.6,2,3,3.1,4.5,3.2c1.6,0.1,2.9-0.8,4-2.8c0.6-1.1,1.1-2.6,1.5-4.5c0.4-1.9,0.6-3.9,0.6-6c0-3.2-0.4-5.4-1.3-6.8
				c-0.6-0.9-1.8-1.9-3.6-2.7l-2.7-1.2c-1.8-0.8-3-1.5-3.8-2.2c-0.7-0.7-1.5-1.8-2.2-3.2c-1-2.1-1.8-5.1-2.4-9.2
				c-0.5-3.6-0.8-7.8-0.8-12.5c0-7.8,0.7-14.2,2-19.4c1.8-6.9,4.4-10.5,8-10.8c1.5-0.1,3,0.3,4.3,1.4c1.3,1.1,3,3.3,5.1,6.4
				c0.7,1,1.1,1.5,1.3,1.5c0.3,0,0.6-0.6,0.9-1.7L232.4,163.9z"/>
			<path id="XMLID_73_" class="st1" d="M243.1,210.1v27l17.5,1.4c0.4,0,0.7-0.3,0.9-1c0.2-0.7,0.4-1.9,0.5-3.7l0.7,0v26.6l-0.7-0.1
				c-0.1-1.8-0.3-3.1-0.5-3.8c-0.2-0.7-0.5-1.1-0.9-1.2l-24.3-2.8v-2.3c0.4-0.4,0.8-1,0.9-1.8c0.2-0.7,0.3-1.9,0.3-3.3v-82.5
				c0-1.5-0.1-2.6-0.3-3.3c-0.2-0.7-0.5-1.3-0.9-1.8v-2.3l23.8-2.1c0.4,0,0.7-0.4,0.9-1.2c0.2-0.7,0.4-2,0.5-3.8l0.7-0.1v26.5
				l-0.7,0c-0.1-1.8-0.3-3-0.5-3.7c-0.2-0.7-0.5-1-0.9-1l-17,0.9v23.4l10.9-0.1c0.4,0,0.7-0.3,0.9-1c0.2-0.7,0.4-1.9,0.5-3.7l0.6,0
				v25.6l-0.6,0c-0.1-1.7-0.3-3-0.5-3.7c-0.2-0.7-0.5-1.1-0.9-1.1L243.1,210.1z"/>
			<path id="XMLID_71_" class="st2" d="M273.7,178.7v70.4c0,1.6,0.1,2.8,0.3,3.7c0.2,0.9,0.6,1.6,1.1,2.2v2.2l-8.5-1v-2.1
				c0.5-0.4,0.8-1,1-1.9c0.2-0.8,0.3-2,0.3-3.6v-69.7c0-1.6-0.1-2.8-0.3-3.6c-0.2-0.8-0.6-1.5-1.1-2v-2.1l8.5-0.4v2.2
				c-0.5,0.5-0.9,1.2-1.1,2.1C273.8,175.9,273.7,177.1,273.7,178.7z"/>
			<path id="XMLID_69_" class="st2" d="M286.9,221v29.5c0,1.6,0.1,2.9,0.3,3.8c0.2,0.9,0.6,1.7,1.1,2.3v2.2l-8.9-1v-2.2
				c0.5-0.4,0.9-1,1.1-1.9c0.2-0.9,0.3-2.1,0.3-3.7v-71.5c0-1.6-0.1-2.8-0.3-3.7c-0.2-0.8-0.6-1.5-1.1-2.1v-2.2l23.3-1.2
				c0.5,0,0.9-0.4,1.2-1.2c0.3-0.8,0.5-2.1,0.6-4.1l0.7,0v27l-0.7,0c-0.2-1.9-0.4-3.3-0.6-4c-0.3-0.8-0.7-1.1-1.2-1.1l-15.8,0.4
				v19.4l9.8,0.1c0.5,0,0.9-0.4,1.1-1.1c0.3-0.7,0.5-2.1,0.6-4l0.6,0v26.1l-0.6,0c-0.2-1.9-0.4-3.3-0.6-4c-0.3-0.8-0.6-1.2-1.2-1.2
				L286.9,221z"/>
			<path id="XMLID_13_" class="st2" d="M325.3,221.4v33c0,1.8,0.1,3.1,0.4,4.1c0.2,1,0.7,1.8,1.3,2.5v2.3l-10.3-1.2v-2.3
				c0.6-0.5,1-1.2,1.3-2.1c0.2-0.9,0.4-2.2,0.4-4v-32.6l-8.4-38c-0.9-4.2-1.7-7.1-2.2-8.6c-0.6-1.5-1.2-2.6-2-3.1v-2.3l12.7-0.7v2.3
				c-1.1,1-1.7,2.7-1.7,5.2c0,1.2,0.4,3.7,1.2,7.3l4.2,18.9l4.2-19.1c0.8-3.8,1.2-6.4,1.2-7.6c0-2.4-0.6-4.1-1.7-5l0-2.4l13-0.7v2.4
				c-0.8,0.6-1.6,1.8-2.2,3.4c-0.6,1.7-1.4,4.7-2.4,9.2L325.3,221.4z"/>
		</g>
	</g>
	<polygon id="XMLID_6_" class="st0" points="511.6,112.7 472.8,103.8 472.8,80.2 511.6,91.2 	"/>
</g>
<g id="Layer_2">
</g>
</svg>
